<svg xmlns="http://www.w3.org/2000/svg" viewBox="0 0 560 720" width="560" height="720" fill="currentColor" aria-hidden="true">
  
  <g>
    <rect x="40" y="36" width="88" height="24" opacity="0.18"></rect><rect x="138" y="36" width="350" height="24" opacity="0.18"></rect>
    <rect x="72" y="92" width="376" height="24" opacity="0.22"></rect><rect x="458" y="92" width="62" height="24" opacity="0.22"></rect>
    <rect x="40" y="148" width="156" height="24" opacity="0.26"></rect><rect x="206" y="148" width="314" height="24" opacity="0.26"></rect>
    <rect x="40" y="204" width="380" height="24" opacity="0.30"></rect><rect x="430" y="204" width="74" height="24" opacity="0.30"></rect>
    <rect x="56" y="260" width="196" height="24" opacity="0.35"></rect><rect x="262" y="260" width="258" height="24" opacity="0.35"></rect>
    <rect x="40" y="316" width="364" height="24" opacity="0.40"></rect><rect x="414" y="316" width="106" height="24" opacity="0.40"></rect>
    <rect x="40" y="372" width="272" height="24" opacity="0.47"></rect><rect x="322" y="372" width="198" height="24" opacity="0.47"></rect>
    <rect x="40" y="428" width="356" height="24" opacity="0.55"></rect><rect x="406" y="428" width="106" height="24" opacity="0.55"></rect>
    <rect x="40" y="484" width="308" height="24" opacity="0.64"></rect><rect x="358" y="484" width="162" height="24" opacity="0.64"></rect>
    <rect x="40" y="540" width="340" height="24" opacity="0.75"></rect><rect x="390" y="540" width="130" height="24" opacity="0.75"></rect>
    <rect x="40" y="596" width="332" height="24" opacity="0.87"></rect><rect x="382" y="596" width="138" height="24" opacity="0.87"></rect>
    <rect x="40" y="652" width="332" height="24" opacity="1"></rect><rect x="382" y="652" width="138" height="24" opacity="1"></rect>
  </g>
</svg>