<svg xmlns="http://www.w3.org/2000/svg" width="72" height="72" fill="none" viewBox="0 0 72 72">
  <path fill="#07C4D9" d="M36 0c19.872 0 36 16.128 36 36S55.872 72 36 72 0 55.872 0 36 16.128 0 36 0Z"/>
  <path fill="#fff" d="M28.442 47.5v-3.52l8.736-8.576c1.408-1.376 2.304-2.688 2.304-4.448 0-2.112-1.568-3.488-3.616-3.488-2.176 0-3.552 1.664-3.84 3.872l-3.744-.576c.448-3.744 3.488-6.496 7.648-6.496 3.936 0 7.552 2.272 7.552 6.624 0 2.912-1.632 4.928-3.648 6.848l-6.528 6.24h10.208v3.52H28.442Z"/>
</svg>
