<svg xmlns="http://www.w3.org/2000/svg" width="72" height="72" fill="none" viewBox="0 0 72 72">
  <path fill="#07C4D9" d="M36 0c19.872 0 36 16.128 36 36S55.872 72 36 72 0 55.872 0 36 16.128 0 36 0Z"/>
  <path fill="#fff" d="M33.019 37.228v-3.072h1.024c2.272 0 4.832-.64 4.832-3.424 0-2.048-1.664-3.264-3.584-3.264-1.856 0-3.168 1.184-3.616 2.912l-3.616-.928c.8-3.04 3.776-5.184 7.392-5.184 3.968 0 7.296 2.144 7.296 6.208 0 2.432-1.6 4.512-4.064 5.12v.064c2.752.544 4.672 2.656 4.672 5.44 0 4.704-4.064 6.976-7.904 6.976-3.808 0-7.008-1.568-8.224-5.344l3.584-1.12c.544 1.792 2.112 3.2 4.512 3.2 1.984 0 4.16-1.024 4.16-3.744 0-2.944-3.104-3.84-5.504-3.84h-.96Z"/>
</svg>
