<svg width="77" height="77" viewBox="0 0 77 77" fill="none" xmlns="http://www.w3.org/2000/svg">
<path d="M38 0.302246C58.976 0.302246 76 17.3262 76 38.3022C76 59.2782 58.976 76.3022 38 76.3022C17.024 76.3022 0 59.2782 0 38.3022C0 17.3262 17.024 0.302246 38 0.302246Z" fill="#07C4D9"/>
<path fill-rule="evenodd" clip-rule="evenodd" d="M34.1045 29.3767C34.1045 27.145 35.9159 25.3332 38.1536 25.3332C40.3912 25.3332 42.2026 27.145 42.2026 29.3767C42.2026 31.6085 40.3912 33.4203 38.1536 33.4203C35.9159 33.4203 34.1045 31.6085 34.1045 29.3767ZM38.1536 22.3332C34.2619 22.3332 31.1045 25.4853 31.1045 29.3767C31.1045 31.4865 32.0325 33.3789 33.5025 34.6695L29.9288 40.1339C29.0245 39.7124 28.0158 39.4771 26.9524 39.4771C23.0607 39.4771 19.9033 42.6291 19.9033 46.5206C19.9033 50.412 23.0607 53.5641 26.9524 53.5641C30.5045 53.5641 33.445 50.938 33.931 47.5206H42.2726C42.7587 50.938 45.6991 53.5641 49.2512 53.5641C53.1429 53.5641 56.3003 50.412 56.3003 46.5206C56.3003 42.6291 53.1429 39.4771 49.2512 39.4771C48.188 39.4771 47.1795 39.7123 46.2753 40.1337L42.739 34.7265C44.2469 33.4349 45.2026 31.5177 45.2026 29.3767C45.2026 25.4853 42.0452 22.3332 38.1536 22.3332ZM44.6007 41.2273L41.0511 35.7996C40.1671 36.1983 39.1862 36.4203 38.1536 36.4203C37.09 36.4203 36.0813 36.1848 35.1769 35.7632L31.6033 41.2276C32.8368 42.3106 33.6887 43.8173 33.931 45.5206H42.2726C42.5149 43.8171 43.367 42.3103 44.6007 41.2273ZM26.9524 42.4771C24.7147 42.4771 22.9033 44.2888 22.9033 46.5206C22.9033 48.7523 24.7147 50.5641 26.9524 50.5641C29.19 50.5641 31.0015 48.7523 31.0015 46.5206C31.0015 44.2888 29.19 42.4771 26.9524 42.4771ZM45.2021 46.5206C45.2021 44.2888 47.0136 42.4771 49.2512 42.4771C51.4889 42.4771 53.3003 44.2888 53.3003 46.5206C53.3003 48.7523 51.4889 50.5641 49.2512 50.5641C47.0136 50.5641 45.2021 48.7523 45.2021 46.5206Z" fill="white"/>
</svg>
