<svg width="77" height="77" viewBox="0 0 77 77" fill="none" xmlns="http://www.w3.org/2000/svg">
<path d="M39 1C59.976 1 77 18.024 77 39C77 59.976 59.976 77 39 77C18.024 77 1 59.976 1 39C1 18.024 18.024 1 39 1Z" fill="#07C4D9"/>
<path fill-rule="evenodd" clip-rule="evenodd" d="M24.918 38.6283C24.918 31.0601 31.0443 24.9283 38.5971 24.9283C46.1499 24.9283 52.2762 31.0601 52.2762 38.6283C52.2762 46.1966 46.1499 52.3283 38.5971 52.3283C31.0443 52.3283 24.918 46.1966 24.918 38.6283ZM38.5971 21.9283C29.3835 21.9283 21.918 29.4071 21.918 38.6283C21.918 47.8496 29.3835 55.3283 38.5971 55.3283C47.8106 55.3283 55.2762 47.8496 55.2762 38.6283C55.2762 29.4071 47.8106 21.9283 38.5971 21.9283ZM37.4326 28.495V38.6283C37.4326 38.9607 37.5977 39.2713 37.8732 39.4572L45.5042 44.607L46.623 42.9491L39.4326 38.0968V28.495H37.4326Z" fill="white"/>
</svg>
