<svg width="72" height="72" viewBox="0 0 72 72" fill="none" xmlns="http://www.w3.org/2000/svg">
<rect width="72" height="72" rx="36" fill="#07C4D9"/>
<g clip-path="url(#clip0_2494_34669)">
<path d="M26.5701 50.9644C27.5301 51.3484 28.7781 51.6364 30.2181 51.7324C33.6741 51.9244 35.2101 51.7324 38.6661 51.7324C40.1061 51.7324 41.2581 50.6764 41.5461 49.3324L42.9861 40.6924L43.9461 40.3084C44.6181 40.1164 45.0981 39.5404 45.1941 38.7724L45.5781 36.4684C45.7701 35.3164 44.9061 34.2604 43.6581 34.2604H34.3461V27.9244C34.3461 24.6604 31.7541 22.0684 28.4901 22.0684C27.4341 22.0684 26.5701 22.9324 26.5701 23.9884V30.4204C26.5701 30.9964 26.4741 31.6684 26.1861 32.1484C23.3061 38.1004 19.7541 47.9884 26.5701 50.9644Z" stroke="white" stroke-width="2.84211" stroke-miterlimit="10" stroke-linecap="round" stroke-linejoin="round"/>
</g>
<path d="M45.1207 15.5566L47.2327 19.7806L51.9367 20.4526L48.4807 23.8126L49.3447 28.5166L45.1207 26.3086L40.8967 28.5166L41.6647 23.8126L38.3047 20.4526L43.0087 19.7806L45.1207 15.5566Z" stroke="white" stroke-width="1.89474" stroke-linecap="round" stroke-linejoin="round"/>
<defs>
<clipPath id="clip0_2494_34669">
<rect width="25.824" height="32.64" fill="white" transform="translate(21.1934 20.627)"/>
</clipPath>
</defs>
</svg>
