<svg xmlns="http://www.w3.org/2000/svg" width="35" height="33" fill="none" viewBox="0 0 35 33">
  <path stroke="#fff" stroke-miterlimit="10" stroke-width="3" d="M6.156 15.487v-2.685c0-6.117 5.073-11.19 11.19-11.19 6.116 0 11.188 5.073 11.188 11.19v2.685"/>
  <path stroke="#fff" stroke-width="3" d="M2.128 17.724c0-1.193 1.044-2.238 2.238-2.238h3.133v8.355H4.366c-1.194 0-2.238-1.045-2.238-2.238v-3.879zM27.266 15.487h3.133c1.193 0 2.237 1.044 2.237 2.238v3.879c0 1.193-1.044 2.237-2.238 2.237h-3.132v-8.354z"/>
  <path stroke="#fff" stroke-miterlimit="10" stroke-width="2" d="M28.533 23.841v2.238a4.489 4.489 0 01-4.475 4.476h-6.863"/>
  <path fill="#fff" d="M17.568 32.792a2.238 2.238 0 100-4.476 2.238 2.238 0 000 4.476z"/>
</svg>
