<svg xmlns="http://www.w3.org/2000/svg" width="72" height="72" fill="none" viewBox="0 0 72 72">
  <g clip-path="url(#a)">
    <path fill="#07C4D9" d="M35.77.565c19.615 0 35.533 15.919 35.533 35.533S55.385 71.63 35.771 71.63C16.157 71.63.238 55.712.238 36.098.238 16.484 16.157.565 35.771.565Z"/>
    <path stroke="#fff" stroke-linecap="round" stroke-linejoin="round" stroke-width="2.805" d="M35.77 49.604c7.549 0 13.667-6.047 13.667-13.506 0-7.46-6.118-13.506-13.666-13.506s-13.666 6.047-13.666 13.506c0 7.459 6.118 13.506 13.666 13.506Z"/>
    <path stroke="#fff" stroke-linecap="round" stroke-linejoin="round" stroke-width="1.87" d="M35.77 42.873c3.787 0 6.856-3.034 6.856-6.775 0-3.742-3.07-6.775-6.855-6.775-3.787 0-6.856 3.033-6.856 6.775 0 3.741 3.07 6.775 6.856 6.775Z"/>
    <path stroke="#fff" stroke-linecap="round" stroke-linejoin="round" stroke-width="1.87" d="M35.771 37.392c.723 0 1.31-.58 1.31-1.294 0-.715-.587-1.294-1.31-1.294-.723 0-1.31.58-1.31 1.294 0 .714.587 1.294 1.31 1.294Z"/>
    <path stroke="#07C4D9" stroke-width="5.61" d="m39.343 32.6 12.482-12.482"/>
    <path stroke="#fff" stroke-width="1.87" d="m35.177 36.596 15.869-15.87m-.274.662v-3.74m-3.088 6.569v-3.74m2.971.69h3.74m-6.828 2.828h3.74"/>
  </g>
  <defs>
    <clipPath id="a">
      <path fill="#fff" d="M0 0h72v72H0z"/>
    </clipPath>
  </defs>
</svg>
