<svg width="72" height="72" viewBox="0 0 72 72" fill="none" xmlns="http://www.w3.org/2000/svg">
<rect width="72" height="72" rx="36" fill="#07C4D9"/>
<path d="M46.3068 51.283C47.8059 51.283 49.1176 50.065 49.1176 48.4721V46.1297C49.1176 41.0702 44.995 36.8538 39.9354 36.8538V35.5421C42.2778 34.2304 43.8707 31.7006 43.8707 28.796V25.0482C43.8707 22.8932 43.0274 20.9256 41.622 19.5201C40.2165 18.1147 38.2489 17.1777 36.0939 17.1777C33.9389 17.1777 31.9713 18.1147 30.5659 19.5201C28.973 20.9256 28.1298 22.8932 28.1298 25.0482V28.8897C28.1298 31.7943 29.7226 34.3241 32.065 35.6358V36.9475C27.0054 36.9475 22.8828 41.0702 22.8828 46.2234V48.4721C22.8828 49.9713 24.1009 51.283 25.6937 51.283H44.7139H46.3068Z" stroke="white" stroke-width="2.84211"/>
<path d="M38.3426 45.9416L36.4687 47.5345C36.0939 47.8155 35.5318 47.8155 35.2507 47.5345L33.3768 45.9416C33.0957 45.6605 33.002 45.2858 33.0957 44.911L34.7822 40.1325C35.2507 39.3829 36.375 39.3829 36.8435 40.1325L38.53 44.911C38.7174 45.2858 38.6237 45.6605 38.3426 45.9416Z" fill="white"/>
<path d="M35.9072 41.5371C36.8442 41.5371 37.5938 40.7875 37.5938 39.8506C37.5938 38.9136 36.8442 38.1641 35.9072 38.1641C34.9703 38.1641 34.2207 38.9136 34.2207 39.8506C34.2207 40.7875 34.9703 41.5371 35.9072 41.5371Z" fill="white"/>
<path d="M39.4666 35.918L35.9062 39.3847L32.4395 35.918" stroke="white" stroke-width="2.87612" stroke-linejoin="round"/>
</svg>
