<svg xmlns="http://www.w3.org/2000/svg" width="76" height="77" fill="none" viewBox="0 0 76 77">
  <rect width="76" height="76" y=".293" fill="#07C4D9" rx="38"/>
  <path stroke="#fff" stroke-miterlimit="10" stroke-width="3" d="M46.092 50.965H30.06c-.756 0-1.361-.152-1.966-.61-3.78-3.202-5.898-8.234-5.142-13.724.907-6.71 6.503-12.2 13.309-12.963 9.226-1.067 16.939 6.1 16.939 15.098 0 4.575-1.966 8.692-5.294 11.59-.453.457-1.21.61-1.814.61z"/>
  <path stroke="#fff" stroke-linecap="round" stroke-linejoin="round" stroke-miterlimit="10" stroke-width="2" d="M38.077 44.866c.835 0 1.512-.683 1.512-1.525 0-.842-.677-1.525-1.512-1.525s-1.512.683-1.512 1.525c0 .842.677 1.525 1.512 1.525zM38.076 43.341l5.294-5.337M38.076 28.091v-4.575M30.514 31.141l-3.176-3.202M27.49 38.766h-4.538M48.663 38.766H53.2M45.638 31.141l3.176-3.202"/>
</svg>
