<svg width="72" height="72" viewBox="0 0 72 72" fill="none" xmlns="http://www.w3.org/2000/svg">
<rect width="72" height="72" rx="36" fill="#07C4D9"/>
<path d="M46.3068 51.2791C47.8059 51.2791 49.1176 50.061 49.1176 48.4682V46.1258C49.1176 41.0663 44.995 36.8499 39.9354 36.8499V35.5382C42.2778 34.2265 43.8707 31.6967 43.8707 28.7921V25.0443C43.8707 22.8893 43.0274 20.9217 41.622 19.5162C40.2165 18.1108 38.2489 17.1738 36.0939 17.1738C33.9389 17.1738 31.9713 18.1108 30.5659 19.5162C28.973 20.9217 28.1298 22.8893 28.1298 25.0443V28.8858C28.1298 31.7904 29.7226 34.3202 32.065 35.6319V36.9436C27.0054 36.9436 22.8828 41.0662 22.8828 46.2195V48.4682C22.8828 49.9673 24.1009 51.2791 25.6937 51.2791H44.7139H46.3068Z" stroke="white" stroke-width="2.84211"/>
<rect x="40.8145" y="43.3438" width="16.6076" height="16.4847" fill="#07C4D9"/>
<path d="M49.2296 46.3121L50.2884 49.4428C50.3588 49.6426 50.4951 49.7743 50.763 49.7697L54.112 49.7121C54.5138 49.7052 54.7251 50.3046 54.3937 50.5113L51.6809 52.5008C51.5493 52.6371 51.4857 52.8392 51.5562 53.039L52.615 56.1697C52.7558 56.5693 52.2269 56.9804 51.9544 56.7171L49.1748 54.8219C49.0386 54.6902 48.7707 54.6948 48.639 54.8311L45.9263 56.8207C45.529 57.0955 45.0544 56.7687 45.2473 56.2964L46.1978 53.1311C46.2614 52.929 46.1909 52.7292 46.0547 52.5975L43.2751 50.7023C42.8687 50.4413 43.0592 49.8351 43.5292 49.894L46.8782 49.8364C47.1461 49.8318 47.2778 49.6956 47.3413 49.4935L48.2919 46.3282C48.4848 45.8559 49.0206 45.8467 49.2296 46.3121Z" fill="white"/>
</svg>
