<svg width="794" height="82" viewBox="0 0 794 82" fill="none" xmlns="http://www.w3.org/2000/svg">
<path d="M793.311 33.4648V52.0569C793.311 53.9005 793.084 55.5597 792.63 57.0346C792.176 58.5379 791.467 59.8 790.503 60.8211C789.567 61.8705 788.375 62.6789 786.929 63.2462C785.482 63.8134 783.766 64.0971 781.781 64.0971C780.958 64.0971 780.079 64.0261 779.143 63.8843C778.236 63.7425 777.328 63.5298 776.42 63.2462C775.541 62.9625 774.69 62.608 773.868 62.1825C773.045 61.7571 772.308 61.2749 771.655 60.736L774.591 56.7793C775.584 57.7153 776.704 58.4244 777.952 58.9066C779.2 59.4171 780.462 59.6724 781.738 59.6724C782.958 59.6724 783.979 59.488 784.802 59.1193C785.652 58.7789 786.319 58.2968 786.801 57.6728C787.312 57.0488 787.666 56.3113 787.865 55.4604C788.092 54.6096 788.205 53.6736 788.205 52.6525V51.1634H788.12C787.383 52.1561 786.432 52.9219 785.27 53.4608C784.135 53.9714 782.859 54.2266 781.441 54.2266C779.909 54.2266 778.519 53.943 777.271 53.3758C776.023 52.8085 774.96 52.0427 774.08 51.0783C773.229 50.114 772.563 48.9936 772.081 47.7173C771.599 46.4126 771.357 45.037 771.357 43.5904C771.357 42.1156 771.584 40.7258 772.038 39.421C772.52 38.1163 773.187 36.9818 774.038 36.0175C774.917 35.0531 775.966 34.2873 777.186 33.72C778.434 33.1528 779.824 32.8691 781.355 32.8691C782.802 32.8691 784.149 33.167 785.397 33.7626C786.645 34.3582 787.638 35.28 788.375 36.528H788.46V33.4648H793.311ZM782.419 37.0385C781.483 37.0385 780.646 37.2087 779.909 37.5491C779.2 37.8894 778.59 38.3574 778.079 38.9531C777.597 39.5203 777.214 40.201 776.931 40.9952C776.676 41.7894 776.548 42.6403 776.548 43.5479C776.548 44.3704 776.676 45.1646 776.931 45.9304C777.214 46.6962 777.597 47.3911 778.079 48.0151C778.59 48.6107 779.2 49.0929 779.909 49.4616C780.646 49.8303 781.469 50.0147 782.377 50.0147C783.313 50.0147 784.149 49.8445 784.887 49.5042C785.652 49.1355 786.291 48.6533 786.801 48.0576C787.34 47.462 787.751 46.7813 788.035 46.0155C788.319 45.2213 788.46 44.3988 788.46 43.5479C788.46 42.6686 788.319 41.8319 788.035 41.0377C787.751 40.2436 787.34 39.5487 786.801 38.9531C786.291 38.3574 785.667 37.8894 784.929 37.5491C784.192 37.2087 783.355 37.0385 782.419 37.0385Z" fill="black"/>
<path d="M749.553 33.4648H754.403V36.7407H754.488C754.942 35.7196 755.722 34.8262 756.828 34.0604C757.962 33.2662 759.296 32.8691 760.827 32.8691C762.16 32.8691 763.295 33.1102 764.231 33.5924C765.195 34.0462 765.975 34.656 766.571 35.4218C767.195 36.1876 767.648 37.0669 767.932 38.0596C768.216 39.0523 768.358 40.0734 768.358 41.1228V53.8863H763.252V42.5694C763.252 41.9737 763.21 41.3497 763.125 40.6974C763.039 40.045 762.855 39.4636 762.571 38.9531C762.288 38.4142 761.891 37.9745 761.38 37.6342C760.898 37.2938 760.246 37.1236 759.423 37.1236C758.601 37.1236 757.892 37.2938 757.296 37.6342C756.7 37.9462 756.204 38.3574 755.807 38.868C755.438 39.3785 755.154 39.9741 754.956 40.6548C754.757 41.3072 754.658 41.9737 754.658 42.6545V53.8863H749.553V33.4648Z" fill="black"/>
<path d="M740.724 33.4648H745.83V53.8864H740.724V33.4648ZM740.001 26.53C740.001 25.7075 740.299 24.9984 740.894 24.4028C741.518 23.7788 742.298 23.4668 743.234 23.4668C744.17 23.4668 744.95 23.7646 745.574 24.3602C746.227 24.9275 746.553 25.6508 746.553 26.53C746.553 27.4093 746.227 28.1467 745.574 28.7424C744.95 29.3096 744.17 29.5933 743.234 29.5933C742.298 29.5933 741.518 29.2954 740.894 28.6998C740.299 28.0758 740.001 27.3526 740.001 26.53Z" fill="black"/>
<path d="M719.898 33.4648V36.3153H720.026C720.281 35.9182 720.607 35.5211 721.004 35.124C721.43 34.6986 721.94 34.3298 722.536 34.0179C723.131 33.6775 723.798 33.408 724.535 33.2095C725.301 32.9826 726.152 32.8691 727.088 32.8691C728.535 32.8691 729.868 33.1528 731.087 33.72C732.307 34.2589 733.356 35.0106 734.236 35.9749C735.115 36.9393 735.796 38.0738 736.278 39.3785C736.76 40.6832 737.001 42.0872 737.001 43.5904C737.001 45.0937 736.76 46.5119 736.278 47.8449C735.824 49.1496 735.157 50.2983 734.278 51.2911C733.427 52.2554 732.378 53.0354 731.13 53.631C729.91 54.1983 728.52 54.4819 726.96 54.4819C725.514 54.4819 724.181 54.1841 722.961 53.5885C721.77 52.9928 720.848 52.1845 720.196 51.1634H720.111V64.0971H715.005V33.4648H719.898ZM731.811 43.5904C731.811 42.7963 731.683 42.0163 731.428 41.2505C731.201 40.4563 730.846 39.7472 730.364 39.1232C729.882 38.4992 729.272 38.0029 728.535 37.6342C727.797 37.2371 726.932 37.0385 725.939 37.0385C725.003 37.0385 724.167 37.2371 723.429 37.6342C722.692 38.0312 722.054 38.5418 721.515 39.1658C721.004 39.7898 720.607 40.4988 720.323 41.293C720.068 42.0872 719.941 42.8814 719.941 43.6755C719.941 44.4697 720.068 45.2639 720.323 46.058C720.607 46.8238 721.004 47.5187 721.515 48.1427C722.054 48.7667 722.692 49.2773 723.429 49.6743C724.167 50.0431 725.003 50.2274 725.939 50.2274C726.932 50.2274 727.797 50.0289 728.535 49.6318C729.272 49.2347 729.882 48.7242 730.364 48.1002C730.846 47.4762 731.201 46.7671 731.428 45.9729C731.683 45.1788 731.811 44.3846 731.811 43.5904Z" fill="black"/>
<path d="M706.9 41.6334C706.9 40.981 706.801 40.357 706.602 39.7614C706.432 39.1658 706.148 38.6411 705.751 38.1872C705.354 37.7334 704.844 37.3789 704.22 37.1236C703.624 36.84 702.915 36.6982 702.092 36.6982C700.561 36.6982 699.256 37.1662 698.178 38.1022C697.129 39.0098 696.547 40.1869 696.434 41.6334H706.9ZM712.005 43.9308C712.005 44.1577 712.005 44.3846 712.005 44.6115C712.005 44.8384 711.991 45.0653 711.963 45.2922H696.434C696.491 46.0297 696.675 46.7104 696.987 47.3344C697.327 47.93 697.767 48.4547 698.306 48.9085C698.845 49.334 699.455 49.6744 700.135 49.9296C700.816 50.1849 701.525 50.3125 702.263 50.3125C703.539 50.3125 704.617 50.0856 705.496 49.6318C706.375 49.1496 707.099 48.4973 707.666 47.6747L711.069 50.3976C709.056 53.1205 706.134 54.4819 702.305 54.4819C700.717 54.4819 699.256 54.2408 697.923 53.7587C696.59 53.2481 695.427 52.539 694.434 51.6314C693.47 50.7238 692.704 49.6176 692.137 48.3129C691.598 46.9798 691.329 45.4766 691.329 43.8032C691.329 42.1581 691.598 40.669 692.137 39.336C692.704 37.9745 693.47 36.8258 694.434 35.8898C695.399 34.9255 696.533 34.188 697.838 33.6775C699.171 33.1386 700.603 32.8691 702.135 32.8691C703.553 32.8691 704.858 33.1102 706.049 33.5924C707.269 34.0462 708.318 34.7411 709.197 35.6771C710.077 36.5847 710.757 37.7334 711.24 39.1232C711.75 40.4847 712.005 42.0872 712.005 43.9308Z" fill="black"/>
<path d="M683.223 41.6334C683.223 40.981 683.124 40.357 682.925 39.7614C682.755 39.1658 682.472 38.6411 682.075 38.1872C681.677 37.7334 681.167 37.3789 680.543 37.1236C679.947 36.84 679.238 36.6982 678.416 36.6982C676.884 36.6982 675.579 37.1662 674.502 38.1022C673.452 39.0098 672.871 40.1869 672.757 41.6334H683.223ZM688.329 43.9308C688.329 44.1577 688.329 44.3846 688.329 44.6115C688.329 44.8384 688.314 45.0653 688.286 45.2922H672.757C672.814 46.0297 672.998 46.7104 673.31 47.3344C673.651 47.93 674.09 48.4547 674.629 48.9085C675.168 49.334 675.778 49.6744 676.459 49.9296C677.139 50.1849 677.848 50.3125 678.586 50.3125C679.862 50.3125 680.94 50.0856 681.819 49.6318C682.699 49.1496 683.422 48.4973 683.989 47.6747L687.393 50.3976C685.379 53.1205 682.457 54.4819 678.628 54.4819C677.04 54.4819 675.579 54.2408 674.246 53.7587C672.913 53.2481 671.75 52.539 670.758 51.6314C669.793 50.7238 669.027 49.6176 668.46 48.3129C667.921 46.9798 667.652 45.4766 667.652 43.8032C667.652 42.1581 667.921 40.669 668.46 39.336C669.027 37.9745 669.793 36.8258 670.758 35.8898C671.722 34.9255 672.857 34.188 674.161 33.6775C675.494 33.1386 676.927 32.8691 678.458 32.8691C679.876 32.8691 681.181 33.1102 682.372 33.5924C683.592 34.0462 684.641 34.7411 685.521 35.6771C686.4 36.5847 687.081 37.7334 687.563 39.1232C688.073 40.4847 688.329 42.0872 688.329 43.9308Z" fill="black"/>
<path d="M644.571 21.7224H649.676V42.0588H649.804L657.547 33.4648H664.099L655.25 42.697L664.652 53.8863H657.887L649.804 43.4203H649.676V53.8863H644.571V21.7224Z" fill="black"/>
<path d="M621.49 21.7224H626.595V42.0588H626.723L634.466 33.4648H641.018L632.168 42.697L641.571 53.8863H634.806L626.723 43.4203H626.595V53.8863H621.49V21.7224Z" fill="black"/>
<path d="M596.281 43.5904C596.281 41.9737 596.565 40.513 597.132 39.2083C597.728 37.8752 598.522 36.7407 599.515 35.8047C600.507 34.8687 601.684 34.1455 603.046 33.6349C604.407 33.1244 605.854 32.8691 607.385 32.8691C608.917 32.8691 610.364 33.1244 611.725 33.6349C613.086 34.1455 614.264 34.8687 615.256 35.8047C616.249 36.7407 617.029 37.8752 617.596 39.2083C618.192 40.513 618.49 41.9737 618.49 43.5904C618.49 45.2071 618.192 46.682 617.596 48.0151C617.029 49.3482 616.249 50.4969 615.256 51.4612C614.264 52.3972 613.086 53.1347 611.725 53.6736C610.364 54.2125 608.917 54.4819 607.385 54.4819C605.854 54.4819 604.407 54.2125 603.046 53.6736C601.684 53.1347 600.507 52.3972 599.515 51.4612C598.522 50.4969 597.728 49.3482 597.132 48.0151C596.565 46.682 596.281 45.2071 596.281 43.5904ZM601.472 43.5904C601.472 44.3846 601.585 45.1788 601.812 45.9729C602.067 46.7671 602.436 47.4762 602.918 48.1002C603.4 48.7242 604.01 49.2347 604.748 49.6318C605.485 50.0289 606.364 50.2274 607.385 50.2274C608.407 50.2274 609.286 50.0289 610.023 49.6318C610.761 49.2347 611.37 48.7242 611.853 48.1002C612.335 47.4762 612.689 46.7671 612.916 45.9729C613.172 45.1788 613.299 44.3846 613.299 43.5904C613.299 42.7963 613.172 42.0163 612.916 41.2505C612.689 40.4563 612.335 39.7472 611.853 39.1232C611.37 38.4992 610.761 38.0029 610.023 37.6342C609.286 37.2371 608.407 37.0385 607.385 37.0385C606.364 37.0385 605.485 37.2371 604.748 37.6342C604.01 38.0029 603.4 38.4992 602.918 39.1232C602.436 39.7472 602.067 40.4563 601.812 41.2505C601.585 42.0163 601.472 42.7963 601.472 43.5904Z" fill="black"/>
<path d="M571.073 43.5904C571.073 41.9737 571.356 40.513 571.924 39.2083C572.519 37.8752 573.313 36.7407 574.306 35.8047C575.299 34.8687 576.476 34.1455 577.837 33.6349C579.199 33.1244 580.645 32.8691 582.177 32.8691C583.709 32.8691 585.155 33.1244 586.517 33.6349C587.878 34.1455 589.055 34.8687 590.048 35.8047C591.04 36.7407 591.82 37.8752 592.388 39.2083C592.983 40.513 593.281 41.9737 593.281 43.5904C593.281 45.2071 592.983 46.682 592.388 48.0151C591.82 49.3482 591.04 50.4969 590.048 51.4612C589.055 52.3972 587.878 53.1347 586.517 53.6736C585.155 54.2125 583.709 54.4819 582.177 54.4819C580.645 54.4819 579.199 54.2125 577.837 53.6736C576.476 53.1347 575.299 52.3972 574.306 51.4612C573.313 50.4969 572.519 49.3482 571.924 48.0151C571.356 46.682 571.073 45.2071 571.073 43.5904ZM576.263 43.5904C576.263 44.3846 576.377 45.1788 576.604 45.9729C576.859 46.7671 577.228 47.4762 577.71 48.1002C578.192 48.7242 578.802 49.2347 579.539 49.6318C580.277 50.0289 581.156 50.2274 582.177 50.2274C583.198 50.2274 584.077 50.0289 584.815 49.6318C585.552 49.2347 586.162 48.7242 586.644 48.1002C587.126 47.4762 587.481 46.7671 587.708 45.9729C587.963 45.1788 588.091 44.3846 588.091 43.5904C588.091 42.7963 587.963 42.0163 587.708 41.2505C587.481 40.4563 587.126 39.7472 586.644 39.1232C586.162 38.4992 585.552 38.0029 584.815 37.6342C584.077 37.2371 583.198 37.0385 582.177 37.0385C581.156 37.0385 580.277 37.2371 579.539 37.6342C578.802 38.0029 578.192 38.4992 577.71 39.1232C577.228 39.7472 576.859 40.4563 576.604 41.2505C576.377 42.0163 576.263 42.7963 576.263 43.5904Z" fill="black"/>
<path d="M545.822 23.7646H557.564C558.699 23.7646 559.819 23.9065 560.925 24.1901C562.031 24.4454 563.01 24.885 563.861 25.509C564.74 26.1046 565.449 26.8846 565.988 27.849C566.527 28.8133 566.796 29.9762 566.796 31.3376C566.796 33.0394 566.314 34.4434 565.35 35.5496C564.386 36.6557 563.123 37.4499 561.563 37.9321V38.0172C563.464 38.2724 565.024 39.0099 566.243 40.2295C567.463 41.4491 568.073 43.08 568.073 45.1222C568.073 46.7672 567.747 48.157 567.094 49.2915C566.442 50.3977 565.577 51.2912 564.499 51.9719C563.45 52.6526 562.23 53.1489 560.84 53.4609C559.479 53.7446 558.089 53.8864 556.671 53.8864H545.822V23.7646ZM551.182 36.0176H555.947C557.734 36.0176 559.096 35.663 560.032 34.9539C560.968 34.2449 561.436 33.238 561.436 31.9333C561.436 30.5718 560.954 29.6075 559.989 29.0402C559.025 28.4729 557.522 28.1893 555.479 28.1893H551.182V36.0176ZM551.182 49.3766H555.99C556.671 49.3766 557.408 49.3341 558.202 49.249C558.997 49.1356 559.72 48.9228 560.372 48.6108C561.053 48.2988 561.606 47.845 562.031 47.2494C562.485 46.6538 562.712 45.8596 562.712 44.8669C562.712 43.2785 562.173 42.1724 561.095 41.5484C560.018 40.9244 558.387 40.6124 556.203 40.6124H551.182V49.3766Z" fill="black"/>
<path d="M528.716 41.6334C528.716 40.981 528.617 40.357 528.419 39.7614C528.248 39.1658 527.965 38.6411 527.568 38.1872C527.171 37.7334 526.66 37.3789 526.036 37.1236C525.44 36.84 524.731 36.6982 523.909 36.6982C522.377 36.6982 521.073 37.1662 519.995 38.1022C518.945 39.0098 518.364 40.1869 518.25 41.6334H528.716ZM533.822 43.9308C533.822 44.1577 533.822 44.3846 533.822 44.6115C533.822 44.8384 533.808 45.0653 533.779 45.2922H518.25C518.307 46.0297 518.491 46.7104 518.803 47.3344C519.144 47.93 519.583 48.4547 520.122 48.9085C520.661 49.334 521.271 49.6744 521.952 49.9296C522.633 50.1849 523.342 50.3125 524.079 50.3125C525.355 50.3125 526.433 50.0856 527.312 49.6318C528.192 49.1496 528.915 48.4973 529.482 47.6747L532.886 50.3976C530.872 53.1205 527.951 54.4819 524.122 54.4819C522.533 54.4819 521.073 54.2408 519.739 53.7587C518.406 53.2481 517.244 52.539 516.251 51.6314C515.286 50.7238 514.521 49.6176 513.953 48.3129C513.414 46.9798 513.145 45.4766 513.145 43.8032C513.145 42.1581 513.414 40.669 513.953 39.336C514.521 37.9745 515.286 36.8258 516.251 35.8898C517.215 34.9255 518.35 34.188 519.654 33.6775C520.987 33.1386 522.42 32.8691 523.951 32.8691C525.37 32.8691 526.674 33.1102 527.866 33.5924C529.085 34.0462 530.135 34.7411 531.014 35.6771C531.893 36.5847 532.574 37.7334 533.056 39.1232C533.567 40.4847 533.822 42.0872 533.822 43.9308Z" fill="black"/>
<path d="M506.291 39.1232C505.894 38.556 505.298 38.088 504.504 37.7193C503.71 37.3222 502.902 37.1236 502.079 37.1236C501.143 37.1236 500.321 37.3222 499.611 37.7193C498.902 38.088 498.307 38.5843 497.825 39.2083C497.371 39.8323 497.03 40.5414 496.803 41.3356C496.577 42.1014 496.463 42.8814 496.463 43.6755C496.463 44.4697 496.577 45.2639 496.803 46.058C497.059 46.8238 497.427 47.5187 497.91 48.1427C498.392 48.7667 498.987 49.2773 499.697 49.6743C500.434 50.0431 501.285 50.2274 502.249 50.2274C503.043 50.2274 503.838 50.0714 504.632 49.7594C505.426 49.4474 506.064 48.9936 506.546 48.398L509.737 51.6314C508.886 52.539 507.794 53.2481 506.461 53.7587C505.156 54.2408 503.738 54.4819 502.207 54.4819C500.703 54.4819 499.271 54.2408 497.91 53.7587C496.577 53.2765 495.399 52.5674 494.378 51.6314C493.386 50.6954 492.592 49.5609 491.996 48.2278C491.429 46.8948 491.145 45.3773 491.145 43.6755C491.145 42.0305 491.429 40.5414 491.996 39.2083C492.592 37.8752 493.386 36.7407 494.378 35.8047C495.371 34.8687 496.52 34.1455 497.825 33.6349C499.158 33.1244 500.576 32.8691 502.079 32.8691C503.582 32.8691 505.029 33.1528 506.419 33.72C507.837 34.2873 508.957 35.0673 509.78 36.06L506.291 39.1232Z" fill="black"/>
<path d="M481.868 33.4648H486.974V53.8864H481.868V33.4648ZM481.145 26.53C481.145 25.7075 481.443 24.9984 482.038 24.4028C482.662 23.7788 483.442 23.4668 484.378 23.4668C485.314 23.4668 486.094 23.7646 486.718 24.3602C487.371 24.9275 487.697 25.6508 487.697 26.53C487.697 27.4093 487.371 28.1467 486.718 28.7424C486.094 29.3096 485.314 29.5933 484.378 29.5933C483.442 29.5933 482.662 29.2954 482.038 28.6998C481.443 28.0758 481.145 27.3526 481.145 26.53Z" fill="black"/>
<path d="M456.145 33.4648H461.718L467.079 48.3555H467.164L472.567 33.4648H477.971L469.844 53.8864H464.399L456.145 33.4648Z" fill="black"/>
<path d="M441.145 33.4648H446.038V36.8684H446.123C446.69 35.6771 447.484 34.7127 448.505 33.9753C449.526 33.2379 450.718 32.8691 452.079 32.8691C452.278 32.8691 452.49 32.8833 452.717 32.9117C452.944 32.9117 453.143 32.94 453.313 32.9968V37.6767C452.972 37.5916 452.675 37.5349 452.419 37.5065C452.192 37.4782 451.966 37.464 451.739 37.464C450.576 37.464 449.64 37.6767 448.931 38.1022C448.222 38.5276 447.669 39.0381 447.271 39.6338C446.874 40.2294 446.605 40.8392 446.463 41.4632C446.321 42.0872 446.25 42.5835 446.25 42.9523V53.8863H441.145V33.4648Z" fill="black"/>
<path d="M432.716 41.6334C432.716 40.981 432.617 40.357 432.419 39.7614C432.248 39.1658 431.965 38.6411 431.568 38.1872C431.171 37.7334 430.66 37.3789 430.036 37.1236C429.44 36.84 428.731 36.6982 427.909 36.6982C426.377 36.6982 425.073 37.1662 423.995 38.1022C422.945 39.0098 422.364 40.1869 422.25 41.6334H432.716ZM437.822 43.9308C437.822 44.1577 437.822 44.3846 437.822 44.6115C437.822 44.8384 437.808 45.0653 437.779 45.2922H422.25C422.307 46.0297 422.491 46.7104 422.803 47.3344C423.144 47.93 423.583 48.4547 424.122 48.9085C424.661 49.334 425.271 49.6744 425.952 49.9296C426.633 50.1849 427.342 50.3125 428.079 50.3125C429.355 50.3125 430.433 50.0856 431.312 49.6318C432.192 49.1496 432.915 48.4973 433.482 47.6747L436.886 50.3976C434.872 53.1205 431.951 54.4819 428.122 54.4819C426.533 54.4819 425.073 54.2408 423.739 53.7587C422.406 53.2481 421.244 52.539 420.251 51.6314C419.286 50.7238 418.521 49.6176 417.953 48.3129C417.414 46.9798 417.145 45.4766 417.145 43.8032C417.145 42.1581 417.414 40.669 417.953 39.336C418.521 37.9745 419.286 36.8258 420.251 35.8898C421.215 34.9255 422.35 34.188 423.654 33.6775C424.987 33.1386 426.42 32.8691 427.951 32.8691C429.37 32.8691 430.674 33.1102 431.866 33.5924C433.085 34.0462 434.135 34.7411 435.014 35.6771C435.893 36.5847 436.574 37.7334 437.056 39.1232C437.567 40.4847 437.822 42.0872 437.822 43.9308Z" fill="black"/>
<path d="M409.982 30.0612C409.415 29.3238 408.607 28.714 407.557 28.2318C406.536 27.7213 405.501 27.466 404.451 27.466C403.827 27.466 403.203 27.5511 402.579 27.7213C401.955 27.8631 401.388 28.1042 400.878 28.4445C400.367 28.7565 399.942 29.182 399.601 29.7209C399.289 30.2314 399.133 30.8554 399.133 31.5928C399.133 32.2736 399.275 32.855 399.559 33.3372C399.842 33.8193 400.225 34.2306 400.707 34.571C401.218 34.9113 401.828 35.2091 402.537 35.4644C403.246 35.7197 404.026 35.975 404.877 36.2302C405.841 36.5422 406.834 36.8968 407.855 37.2938C408.904 37.6909 409.855 38.2156 410.705 38.868C411.585 39.5204 412.294 40.3429 412.833 41.3356C413.4 42.3283 413.684 43.5621 413.684 45.037C413.684 46.6537 413.386 48.0719 412.79 49.2915C412.195 50.4827 411.4 51.4755 410.408 52.2696C409.415 53.0638 408.252 53.6594 406.919 54.0565C405.586 54.4536 404.182 54.6521 402.707 54.6521C400.75 54.6521 398.835 54.2976 396.963 53.5885C395.092 52.8511 393.56 51.7733 392.369 50.3551L396.198 46.7813C396.935 47.8024 397.914 48.6108 399.133 49.2064C400.381 49.802 401.601 50.0998 402.792 50.0998C403.416 50.0998 404.054 50.0289 404.707 49.8871C405.359 49.7169 405.94 49.4475 406.451 49.0788C406.99 48.71 407.415 48.2562 407.727 47.7173C408.068 47.1501 408.238 46.4552 408.238 45.6326C408.238 44.8385 408.054 44.1861 407.685 43.6756C407.316 43.1367 406.82 42.6829 406.196 42.3141C405.572 41.917 404.834 41.5767 403.983 41.2931C403.132 41.0094 402.239 40.7116 401.303 40.3996C400.395 40.116 399.488 39.7756 398.58 39.3785C397.673 38.9815 396.85 38.4567 396.113 37.8044C395.404 37.152 394.822 36.3579 394.368 35.4219C393.914 34.4575 393.688 33.2663 393.688 31.8481C393.688 30.3165 394 28.9976 394.624 27.8914C395.276 26.7853 396.113 25.8776 397.134 25.1686C398.183 24.4311 399.36 23.8922 400.665 23.5519C401.998 23.1831 403.345 22.9988 404.707 22.9988C406.238 22.9988 407.784 23.2682 409.344 23.8071C410.932 24.346 412.308 25.1544 413.471 26.2322L409.982 30.0612Z" fill="black"/>
<path d="M389.368 45.5901H379.158V41.2505H389.368V45.5901Z" fill="black"/>
<path d="M371.052 21.7224H376.158V53.8863H371.052V21.7224Z" fill="black"/>
<path d="M360.947 21.7224H366.052V53.8863H360.947V21.7224Z" fill="black"/>
<path d="M355.947 53.8864H351.097V50.6104H351.012C350.558 51.6315 349.764 52.5391 348.629 53.3333C347.523 54.0991 346.204 54.482 344.673 54.482C343.339 54.482 342.191 54.2551 341.226 53.8013C340.29 53.3191 339.51 52.6951 338.886 51.9293C338.291 51.1635 337.851 50.2842 337.568 49.2915C337.284 48.2988 337.142 47.2777 337.142 46.2283V33.4648H342.247V44.7818C342.247 45.3774 342.29 46.0014 342.375 46.6537C342.46 47.3061 342.645 47.9017 342.928 48.4406C343.212 48.9512 343.595 49.3766 344.077 49.717C344.587 50.0573 345.254 50.2275 346.077 50.2275C346.871 50.2275 347.566 50.0715 348.161 49.7595C348.785 49.4192 349.282 48.9937 349.65 48.4832C350.047 47.9726 350.345 47.3912 350.544 46.7388C350.742 46.0581 350.842 45.3774 350.842 44.6967V33.4648H355.947V53.8864Z" fill="black"/>
<path d="M314.699 23.7646H334.142V28.4446H320.06V36.6983H333.334V41.208H320.06V53.8864H314.699V23.7646Z" fill="black"/>
<path d="M289 37.6206V33.5363H292.574V27.6226H297.594V33.5363H302.699V37.6206H297.594V47.1081C297.594 48.0157 297.75 48.7673 298.062 49.363C298.402 49.9586 299.14 50.2564 300.274 50.2564C300.615 50.2564 300.983 50.228 301.381 50.1713C301.778 50.0862 302.132 49.9728 302.444 49.831L302.614 53.8302C302.161 54.0004 301.622 54.128 300.998 54.2131C300.374 54.3265 299.778 54.3833 299.211 54.3833C297.849 54.3833 296.743 54.1989 295.892 53.8302C295.041 53.4331 294.361 52.9084 293.85 52.256C293.368 51.5753 293.028 50.8095 292.829 49.9586C292.659 49.0793 292.574 48.1434 292.574 47.1506V37.6206H289Z" fill="black"/>
<path d="M274 33.5365H278.893V36.9401H278.978C279.545 35.7489 280.339 34.7845 281.36 34.0471C282.381 33.3096 283.573 32.9409 284.934 32.9409C285.133 32.9409 285.345 32.9551 285.572 32.9835C285.799 32.9835 285.998 33.0118 286.168 33.0686V37.7485C285.827 37.6634 285.53 37.6067 285.274 37.5783C285.047 37.5499 284.821 37.5358 284.594 37.5358C283.431 37.5358 282.495 37.7485 281.786 38.1739C281.077 38.5994 280.524 39.1099 280.126 39.7055C279.729 40.3012 279.46 40.911 279.318 41.535C279.176 42.159 279.105 42.6553 279.105 43.024V53.9581H274V33.5365Z" fill="black"/>
<path d="M265.571 41.7052C265.571 41.0528 265.472 40.4288 265.274 39.8332C265.103 39.2376 264.82 38.7128 264.423 38.259C264.026 37.8052 263.515 37.4507 262.891 37.1954C262.295 36.9118 261.586 36.77 260.764 36.77C259.232 36.77 257.928 37.2379 256.85 38.1739C255.8 39.0816 255.219 40.2586 255.105 41.7052H265.571ZM270.677 44.0026C270.677 44.2295 270.677 44.4564 270.677 44.6833C270.677 44.9102 270.663 45.1371 270.634 45.364H255.105C255.162 46.1015 255.346 46.7822 255.658 47.4062C255.999 48.0018 256.438 48.5265 256.977 48.9803C257.516 49.4058 258.126 49.7461 258.807 50.0014C259.488 50.2567 260.197 50.3843 260.934 50.3843C262.21 50.3843 263.288 50.1574 264.167 49.7036C265.047 49.2214 265.77 48.5691 266.337 47.7465L269.741 50.4694C267.727 53.1923 264.806 54.5537 260.977 54.5537C259.388 54.5537 257.928 54.3126 256.594 53.8304C255.261 53.3199 254.098 52.6108 253.106 51.7032C252.141 50.7956 251.376 49.6894 250.808 48.3847C250.269 47.0516 250 45.5484 250 43.8749C250 42.2299 250.269 40.7408 250.808 39.4077C251.376 38.0463 252.141 36.8976 253.106 35.9616C254.07 34.9973 255.205 34.2598 256.509 33.7493C257.842 33.2104 259.275 32.9409 260.806 32.9409C262.225 32.9409 263.529 33.182 264.721 33.6642C265.94 34.118 266.99 34.8129 267.869 35.7489C268.748 36.6565 269.429 37.8052 269.911 39.195C270.422 40.5564 270.677 42.159 270.677 44.0026Z" fill="black"/>
<path d="M229.893 33.5365V36.387H230.02C230.276 35.99 230.602 35.5929 230.999 35.1958C231.424 34.7703 231.935 34.4016 232.53 34.0896C233.126 33.7493 233.793 33.4798 234.53 33.2813C235.296 33.0544 236.147 32.9409 237.083 32.9409C238.529 32.9409 239.862 33.2246 241.082 33.7918C242.302 34.3307 243.351 35.0823 244.23 36.0467C245.11 37.011 245.79 38.1456 246.272 39.4503C246.755 40.755 246.996 42.159 246.996 43.6622C246.996 45.1655 246.755 46.5836 246.272 47.9167C245.819 49.2214 245.152 50.3701 244.273 51.3628C243.422 52.3272 242.372 53.1072 241.124 53.7028C239.905 54.2701 238.515 54.5537 236.955 54.5537C235.509 54.5537 234.176 54.2559 232.956 53.6603C231.765 53.0646 230.843 52.2563 230.19 51.2352H230.105V64.1688H225V33.5365H229.893ZM241.805 43.6622C241.805 42.868 241.678 42.0881 241.422 41.3223C241.195 40.5281 240.841 39.819 240.359 39.195C239.877 38.571 239.267 38.0747 238.529 37.7059C237.792 37.3089 236.927 37.1103 235.934 37.1103C234.998 37.1103 234.161 37.3089 233.424 37.7059C232.686 38.103 232.048 38.6136 231.509 39.2376C230.999 39.8615 230.602 40.5706 230.318 41.3648C230.063 42.159 229.935 42.9531 229.935 43.7473C229.935 44.5415 230.063 45.3356 230.318 46.1298C230.602 46.8956 230.999 47.5905 231.509 48.2145C232.048 48.8385 232.686 49.349 233.424 49.7461C234.161 50.1148 234.998 50.2992 235.934 50.2992C236.927 50.2992 237.792 50.1007 238.529 49.7036C239.267 49.3065 239.877 48.796 240.359 48.172C240.841 47.548 241.195 46.8389 241.422 46.0447C241.678 45.2506 241.805 44.4564 241.805 43.6622Z" fill="black"/>
<path d="M207.296 43.1092L199.936 33.5366H206.062L210.487 39.8758L215.039 33.5366H220.911L213.593 43.1092L221.932 53.9581H215.72L210.402 46.5128L205.041 53.9581H199L207.296 43.1092Z" fill="black"/>
<path d="M174.822 23.8364H194.776V28.5164H180.183V36.1744H194.01V40.6842H180.183V49.1931H195.542V53.9582H174.822V23.8364Z" fill="black"/>
<path fill-rule="evenodd" clip-rule="evenodd" d="M0 0V81.2377H49.7035V69.2518H12.0906V11.9858H137.909V69.2518H65.8233L53.7342 81.2377H150V0H0Z" fill="#2CA01C"/>
<path fill-rule="evenodd" clip-rule="evenodd" d="M101.994 54.1549V24.0669H122.23V30.2297H109.009V35.8808H121.507V41.704H109.009V47.9513H122.994V54.1549H101.994Z" fill="#2CA01C"/>
<path fill-rule="evenodd" clip-rule="evenodd" d="M30.001 54.1549V24.0669H36.9432V47.8231H48.001V54.1549H30.001Z" fill="#2CA01C"/>
<path fill-rule="evenodd" clip-rule="evenodd" d="M54.0161 54.1547H60.0161V24.0667H54.0161V54.1547Z" fill="#2CA01C"/>
<path fill-rule="evenodd" clip-rule="evenodd" d="M84.5038 54.1549H77.2979L66.0063 24.0669H74.0967L81.0063 45.402H81.1754L88.0432 24.0669H96.0064L84.5038 54.1549Z" fill="#2CA01C"/>
</svg>
