<svg width="465" height="82" viewBox="0 0 465 82" fill="none" xmlns="http://www.w3.org/2000/svg">
<path fill-rule="evenodd" clip-rule="evenodd" d="M0 0V81.2377H49.7035V69.2518H12.0906V11.9858H137.909V69.2518H65.8233L53.7342 81.2377H150V0H0Z" fill="#2CA01C"/>
<path fill-rule="evenodd" clip-rule="evenodd" d="M101.994 54.1549V24.0669H122.23V30.2297H109.009V35.8808H121.507V41.704H109.009V47.9513H122.994V54.1549H101.994Z" fill="#2CA01C"/>
<path fill-rule="evenodd" clip-rule="evenodd" d="M30.001 54.1549V24.0669H36.9432V47.8231H48.001V54.1549H30.001Z" fill="#2CA01C"/>
<path fill-rule="evenodd" clip-rule="evenodd" d="M54.0161 54.1547H60.0161V24.0667H54.0161V54.1547Z" fill="#2CA01C"/>
<path fill-rule="evenodd" clip-rule="evenodd" d="M84.5038 54.1549H77.2979L66.0063 24.0669H74.0967L81.0063 45.402H81.1754L88.0432 24.0669H96.0064L84.5038 54.1549Z" fill="#2CA01C"/>
<path d="M447.613 33.4648V36.3153H447.741C447.996 35.9182 448.322 35.5211 448.719 35.124C449.144 34.6986 449.655 34.3298 450.251 34.0179C450.846 33.6775 451.513 33.408 452.25 33.2095C453.016 32.9826 453.867 32.8691 454.803 32.8691C456.249 32.8691 457.583 33.1528 458.802 33.72C460.022 34.2589 461.071 35.0106 461.95 35.9749C462.83 36.9393 463.51 38.0738 463.993 39.3785C464.475 40.6832 464.716 42.0872 464.716 43.5904C464.716 45.0937 464.475 46.5119 463.993 47.8449C463.539 49.1496 462.872 50.2983 461.993 51.2911C461.142 52.2554 460.093 53.0354 458.845 53.631C457.625 54.1983 456.235 54.4819 454.675 54.4819C453.229 54.4819 451.896 54.1841 450.676 53.5885C449.485 52.9928 448.563 52.1845 447.911 51.1634H447.826V64.0971H442.72V33.4648H447.613ZM459.525 43.5904C459.525 42.7963 459.398 42.0163 459.143 41.2505C458.916 40.4563 458.561 39.7472 458.079 39.1232C457.597 38.4992 456.987 38.0029 456.249 37.6342C455.512 37.2371 454.647 37.0385 453.654 37.0385C452.718 37.0385 451.882 37.2371 451.144 37.6342C450.407 38.0312 449.768 38.5418 449.23 39.1658C448.719 39.7898 448.322 40.4988 448.038 41.293C447.783 42.0872 447.655 42.8814 447.655 43.6755C447.655 44.4697 447.783 45.2639 448.038 46.058C448.322 46.8238 448.719 47.5187 449.23 48.1427C449.768 48.7667 450.407 49.2773 451.144 49.6743C451.882 50.0431 452.718 50.2274 453.654 50.2274C454.647 50.2274 455.512 50.0289 456.249 49.6318C456.987 49.2347 457.597 48.7242 458.079 48.1002C458.561 47.4762 458.916 46.7671 459.143 45.9729C459.398 45.1788 459.525 44.3846 459.525 43.5904Z" fill="black"/>
<path d="M439.72 53.8864H434.87V50.6104H434.785C434.331 51.6315 433.537 52.5391 432.403 53.3333C431.296 54.0991 429.978 54.482 428.446 54.482C427.113 54.482 425.964 54.2551 425 53.8013C424.064 53.3191 423.284 52.6951 422.66 51.9293C422.064 51.1635 421.625 50.2842 421.341 49.2915C421.057 48.2988 420.916 47.2777 420.916 46.2283V33.4648H426.021V44.7818C426.021 45.3774 426.063 46.0014 426.149 46.6537C426.234 47.3061 426.418 47.9017 426.702 48.4406C426.985 48.9512 427.368 49.3766 427.85 49.717C428.361 50.0573 429.027 50.2275 429.85 50.2275C430.644 50.2275 431.339 50.0715 431.935 49.7595C432.559 49.4192 433.055 48.9937 433.424 48.4832C433.821 47.9726 434.119 47.3912 434.317 46.7388C434.516 46.0581 434.615 45.3774 434.615 44.6967V33.4648H439.72V53.8864Z" fill="black"/>
<path d="M399.111 33.4648H403.961V36.7407H404.046C404.5 35.7196 405.28 34.8262 406.386 34.0604C407.521 33.2662 408.854 32.8691 410.385 32.8691C411.718 32.8691 412.853 33.1102 413.789 33.5924C414.753 34.0462 415.533 34.656 416.129 35.4218C416.753 36.1876 417.207 37.0669 417.49 38.0596C417.774 39.0523 417.916 40.0734 417.916 41.1228V53.8863H412.81V42.5694C412.81 41.9737 412.768 41.3497 412.683 40.6974C412.598 40.045 412.413 39.4636 412.13 38.9531C411.846 38.4142 411.449 37.9745 410.938 37.6342C410.456 37.2938 409.804 37.1236 408.981 37.1236C408.159 37.1236 407.45 37.2938 406.854 37.6342C406.258 37.9462 405.762 38.3574 405.365 38.868C404.996 39.3785 404.713 39.9741 404.514 40.6548C404.315 41.3072 404.216 41.9737 404.216 42.6545V53.8863H399.111V33.4648Z" fill="black"/>
<path d="M391.346 51.2911H391.218C390.707 52.1987 389.885 52.9503 388.75 53.5459C387.616 54.1132 386.325 54.3968 384.879 54.3968C384.056 54.3968 383.191 54.2834 382.284 54.0565C381.404 53.8579 380.582 53.5176 379.816 53.0354C379.078 52.5249 378.455 51.8725 377.944 51.0783C377.462 50.2558 377.221 49.2489 377.221 48.0576C377.221 46.526 377.646 45.3064 378.497 44.3988C379.376 43.4912 380.497 42.7963 381.858 42.3141C383.22 41.8319 384.723 41.5199 386.368 41.3781C388.041 41.2079 389.672 41.1228 391.26 41.1228V40.6123C391.26 39.336 390.793 38.4 389.857 37.8043C388.949 37.1804 387.857 36.8684 386.581 36.8684C385.503 36.8684 384.468 37.0953 383.475 37.5491C382.482 38.0029 381.66 38.556 381.007 39.2083L378.369 36.1025C379.532 35.0247 380.865 34.2164 382.369 33.6775C383.9 33.1386 385.446 32.8691 387.006 32.8691C388.821 32.8691 390.31 33.1244 391.473 33.6349C392.664 34.1455 393.6 34.812 394.281 35.6346C394.962 36.4571 395.43 37.3789 395.685 38.4C395.969 39.421 396.111 40.4421 396.111 41.4632V53.8863H391.346V51.2911ZM391.26 44.569H390.112C389.289 44.569 388.424 44.6115 387.517 44.6966C386.609 44.7533 385.772 44.9093 385.006 45.1646C384.241 45.3915 383.602 45.7319 383.092 46.1857C382.581 46.6111 382.326 47.2068 382.326 47.9726C382.326 48.4547 382.425 48.866 382.624 49.2064C382.851 49.5184 383.134 49.7736 383.475 49.9722C383.815 50.1707 384.198 50.3125 384.624 50.3976C385.049 50.4827 385.474 50.5252 385.9 50.5252C387.658 50.5252 388.991 50.0573 389.899 49.1213C390.807 48.1853 391.26 46.9089 391.26 45.2922V44.569Z" fill="black"/>
<path d="M369.115 41.6334C369.115 40.981 369.016 40.357 368.818 39.7614C368.647 39.1658 368.364 38.6411 367.967 38.1872C367.57 37.7334 367.059 37.3789 366.435 37.1236C365.839 36.84 365.13 36.6982 364.308 36.6982C362.776 36.6982 361.471 37.1662 360.394 38.1022C359.344 39.0098 358.763 40.1869 358.649 41.6334H369.115ZM374.221 43.9308C374.221 44.1577 374.221 44.3846 374.221 44.6115C374.221 44.8384 374.207 45.0653 374.178 45.2922H358.649C358.706 46.0297 358.89 46.7104 359.202 47.3344C359.543 47.93 359.982 48.4547 360.521 48.9085C361.06 49.334 361.67 49.6744 362.351 49.9296C363.031 50.1849 363.741 50.3125 364.478 50.3125C365.754 50.3125 366.832 50.0856 367.711 49.6318C368.591 49.1496 369.314 48.4973 369.881 47.6747L373.285 50.3976C371.271 53.1205 368.35 54.4819 364.521 54.4819C362.932 54.4819 361.471 54.2408 360.138 53.7587C358.805 53.2481 357.642 52.539 356.65 51.6314C355.685 50.7238 354.92 49.6176 354.352 48.3129C353.813 46.9798 353.544 45.4766 353.544 43.8032C353.544 42.1581 353.813 40.669 354.352 39.336C354.92 37.9745 355.685 36.8258 356.65 35.8898C357.614 34.9255 358.749 34.188 360.053 33.6775C361.386 33.1386 362.819 32.8691 364.35 32.8691C365.768 32.8691 367.073 33.1102 368.264 33.5924C369.484 34.0462 370.534 34.7411 371.413 35.6771C372.292 36.5847 372.973 37.7334 373.455 39.1232C373.965 40.4847 374.221 42.0872 374.221 43.9308Z" fill="black"/>
<path d="M345.438 21.7224H350.544V53.8863H345.438V21.7224Z" fill="black"/>
<path d="M337.886 30.827C337.092 29.7492 336.057 28.9692 334.78 28.4871C333.504 27.9765 332.256 27.7213 331.036 27.7213C329.476 27.7213 328.058 28.0049 326.782 28.5722C325.506 29.1394 324.399 29.9194 323.463 30.9121C322.556 31.9048 321.847 33.0677 321.336 34.4008C320.854 35.7339 320.613 37.1804 320.613 38.7404C320.613 40.3854 320.854 41.8887 321.336 43.2501C321.818 44.6116 322.499 45.7886 323.378 46.7813C324.286 47.7457 325.364 48.4973 326.612 49.0362C327.86 49.5751 329.264 49.8446 330.824 49.8446C332.44 49.8446 333.873 49.5326 335.121 48.9086C336.369 48.2562 337.376 47.4053 338.141 46.3559L342.438 49.3766C341.105 51.05 339.474 52.3547 337.546 53.2907C335.617 54.1983 333.362 54.6521 330.781 54.6521C328.427 54.6521 326.257 54.2692 324.272 53.5034C322.315 52.7093 320.627 51.6173 319.209 50.2275C317.791 48.8093 316.685 47.1359 315.89 45.2072C315.096 43.2501 314.699 41.0945 314.699 38.7404C314.699 36.3295 315.11 34.1597 315.933 32.231C316.784 30.2739 317.933 28.6147 319.379 27.2533C320.854 25.8918 322.584 24.8424 324.57 24.1049C326.555 23.3675 328.711 22.9988 331.036 22.9988C332.001 22.9988 333.008 23.0981 334.057 23.2966C335.107 23.4668 336.113 23.7504 337.078 24.1475C338.042 24.5162 338.95 24.9842 339.801 25.5515C340.652 26.1187 341.375 26.7995 341.97 27.5936L337.886 30.827Z" fill="black"/>
<path d="M289 37.6206V33.5363H292.574V27.6226H297.594V33.5363H302.699V37.6206H297.594V47.1081C297.594 48.0157 297.75 48.7673 298.062 49.363C298.402 49.9586 299.14 50.2564 300.274 50.2564C300.615 50.2564 300.983 50.228 301.381 50.1713C301.778 50.0862 302.132 49.9728 302.444 49.831L302.614 53.8302C302.161 54.0004 301.622 54.128 300.998 54.2131C300.374 54.3265 299.778 54.3833 299.211 54.3833C297.849 54.3833 296.743 54.1989 295.892 53.8302C295.041 53.4331 294.361 52.9084 293.85 52.256C293.368 51.5753 293.028 50.8095 292.829 49.9586C292.659 49.0793 292.574 48.1434 292.574 47.1506V37.6206H289Z" fill="black"/>
<path d="M274 33.5365H278.893V36.9401H278.978C279.545 35.7489 280.339 34.7845 281.36 34.0471C282.381 33.3096 283.573 32.9409 284.934 32.9409C285.133 32.9409 285.345 32.9551 285.572 32.9835C285.799 32.9835 285.998 33.0118 286.168 33.0686V37.7485C285.827 37.6634 285.53 37.6067 285.274 37.5783C285.047 37.5499 284.821 37.5358 284.594 37.5358C283.431 37.5358 282.495 37.7485 281.786 38.1739C281.077 38.5994 280.524 39.1099 280.126 39.7055C279.729 40.3012 279.46 40.911 279.318 41.535C279.176 42.159 279.105 42.6553 279.105 43.024V53.9581H274V33.5365Z" fill="black"/>
<path d="M265.571 41.7052C265.571 41.0528 265.472 40.4288 265.274 39.8332C265.103 39.2376 264.82 38.7128 264.423 38.259C264.026 37.8052 263.515 37.4507 262.891 37.1954C262.295 36.9118 261.586 36.77 260.764 36.77C259.232 36.77 257.928 37.2379 256.85 38.1739C255.8 39.0816 255.219 40.2586 255.105 41.7052H265.571ZM270.677 44.0026C270.677 44.2295 270.677 44.4564 270.677 44.6833C270.677 44.9102 270.663 45.1371 270.634 45.364H255.105C255.162 46.1015 255.346 46.7822 255.658 47.4062C255.999 48.0018 256.438 48.5265 256.977 48.9803C257.516 49.4058 258.126 49.7461 258.807 50.0014C259.488 50.2567 260.197 50.3843 260.934 50.3843C262.21 50.3843 263.288 50.1574 264.167 49.7036C265.047 49.2214 265.77 48.5691 266.337 47.7465L269.741 50.4694C267.727 53.1923 264.806 54.5537 260.977 54.5537C259.388 54.5537 257.928 54.3126 256.594 53.8304C255.261 53.3199 254.098 52.6108 253.106 51.7032C252.141 50.7956 251.376 49.6894 250.808 48.3847C250.269 47.0516 250 45.5484 250 43.8749C250 42.2299 250.269 40.7408 250.808 39.4077C251.376 38.0463 252.141 36.8976 253.106 35.9616C254.07 34.9973 255.205 34.2598 256.509 33.7493C257.842 33.2104 259.275 32.9409 260.806 32.9409C262.225 32.9409 263.529 33.182 264.721 33.6642C265.94 34.118 266.99 34.8129 267.869 35.7489C268.748 36.6565 269.429 37.8052 269.911 39.195C270.422 40.5564 270.677 42.159 270.677 44.0026Z" fill="black"/>
<path d="M229.893 33.5365V36.387H230.02C230.276 35.99 230.602 35.5929 230.999 35.1958C231.424 34.7703 231.935 34.4016 232.53 34.0896C233.126 33.7493 233.793 33.4798 234.53 33.2813C235.296 33.0544 236.147 32.9409 237.083 32.9409C238.529 32.9409 239.862 33.2246 241.082 33.7918C242.302 34.3307 243.351 35.0823 244.23 36.0467C245.11 37.011 245.79 38.1456 246.272 39.4503C246.755 40.755 246.996 42.159 246.996 43.6622C246.996 45.1655 246.755 46.5836 246.272 47.9167C245.819 49.2214 245.152 50.3701 244.273 51.3628C243.422 52.3272 242.372 53.1072 241.124 53.7028C239.905 54.2701 238.515 54.5537 236.955 54.5537C235.509 54.5537 234.176 54.2559 232.956 53.6603C231.765 53.0646 230.843 52.2563 230.19 51.2352H230.105V64.1688H225V33.5365H229.893ZM241.805 43.6622C241.805 42.868 241.678 42.0881 241.422 41.3223C241.195 40.5281 240.841 39.819 240.359 39.195C239.877 38.571 239.267 38.0747 238.529 37.7059C237.792 37.3089 236.927 37.1103 235.934 37.1103C234.998 37.1103 234.161 37.3089 233.424 37.7059C232.686 38.103 232.048 38.6136 231.509 39.2376C230.999 39.8615 230.602 40.5706 230.318 41.3648C230.063 42.159 229.935 42.9531 229.935 43.7473C229.935 44.5415 230.063 45.3356 230.318 46.1298C230.602 46.8956 230.999 47.5905 231.509 48.2145C232.048 48.8385 232.686 49.349 233.424 49.7461C234.161 50.1148 234.998 50.2992 235.934 50.2992C236.927 50.2992 237.792 50.1007 238.529 49.7036C239.267 49.3065 239.877 48.796 240.359 48.172C240.841 47.548 241.195 46.8389 241.422 46.0447C241.678 45.2506 241.805 44.4564 241.805 43.6622Z" fill="black"/>
<path d="M207.296 43.1092L199.936 33.5366H206.062L210.487 39.8758L215.039 33.5366H220.911L213.593 43.1092L221.932 53.9581H215.72L210.402 46.5128L205.041 53.9581H199L207.296 43.1092Z" fill="black"/>
<path d="M174.822 23.8364H194.776V28.5164H180.183V36.1744H194.01V40.6842H180.183V49.1931H195.542V53.9582H174.822V23.8364Z" fill="black"/>
</svg>
