<svg width="235" height="42" viewBox="0 0 235 42" fill="none" xmlns="http://www.w3.org/2000/svg">
<path fill-rule="evenodd" clip-rule="evenodd" d="M0 0.926758V40.6994H24.334V34.8313H5.91935V6.79481H67.5181V34.8313H32.226L26.3073 40.6994H73.4375V0.926758H0Z" fill="#2CA01C"/>
<path fill-rule="evenodd" clip-rule="evenodd" d="M49.9346 27.4396V12.709H59.8417V15.7262H53.369V18.4929H59.4877V21.3438H53.369V24.4024H60.2158V27.4396H49.9346Z" fill="#2CA01C"/>
<path fill-rule="evenodd" clip-rule="evenodd" d="M14.6875 27.4396V12.709H18.0863V24.3396H23.5V27.4396H14.6875Z" fill="#2CA01C"/>
<path fill-rule="evenodd" clip-rule="evenodd" d="M26.4453 27.4396H29.3828V12.709H26.4453V27.4396Z" fill="#2CA01C"/>
<path fill-rule="evenodd" clip-rule="evenodd" d="M41.3715 27.4396H37.8436L32.3154 12.709H36.2763L39.6592 23.1543H39.742L43.1043 12.709H47.0029L41.3715 27.4396Z" fill="#2CA01C"/>
<path d="M234.819 27.3641H232.444V25.8644H232.402C232.055 26.4476 231.569 26.892 230.944 27.1975C230.333 27.503 229.674 27.6557 228.966 27.6557C228.202 27.6557 227.514 27.5168 226.903 27.2391C226.306 26.9475 225.793 26.5656 225.362 26.0935C224.945 25.6075 224.619 25.0451 224.383 24.4063C224.161 23.7537 224.05 23.0594 224.05 22.3234C224.05 21.5875 224.168 20.9001 224.404 20.2613C224.64 19.6226 224.973 19.0671 225.404 18.595C225.834 18.1229 226.348 17.7549 226.945 17.491C227.542 17.2133 228.195 17.0744 228.903 17.0744C229.361 17.0744 229.771 17.13 230.132 17.2411C230.493 17.3383 230.805 17.4633 231.069 17.616C231.347 17.7688 231.583 17.9354 231.777 18.1159C231.972 18.2964 232.132 18.47 232.257 18.6366H232.319V11.6172H234.819V27.3641ZM226.591 22.3234C226.591 22.7122 226.647 23.101 226.758 23.4899C226.883 23.8787 227.063 24.2258 227.299 24.5313C227.535 24.8368 227.834 25.0868 228.195 25.2812C228.556 25.4756 228.979 25.5728 229.465 25.5728C229.924 25.5728 230.333 25.4825 230.694 25.302C231.055 25.1076 231.361 24.8576 231.611 24.5521C231.875 24.2467 232.069 23.9064 232.194 23.5315C232.333 23.1427 232.402 22.7539 232.402 22.3651C232.402 21.9763 232.333 21.5875 232.194 21.1986C232.069 20.8098 231.875 20.4627 231.611 20.1572C231.361 19.8517 231.055 19.6017 230.694 19.4073C230.333 19.2129 229.924 19.1157 229.465 19.1157C228.979 19.1157 228.556 19.2129 228.195 19.4073C227.834 19.5878 227.535 19.8309 227.299 20.1363C227.063 20.4418 226.883 20.789 226.758 21.1778C226.647 21.5527 226.591 21.9346 226.591 22.3234Z" fill="black"/>
<path d="M220.082 21.365C220.082 21.0457 220.033 20.7402 219.936 20.4486C219.852 20.1569 219.714 19.9001 219.519 19.6779C219.325 19.4557 219.075 19.2821 218.769 19.1571C218.478 19.0183 218.131 18.9489 217.728 18.9489C216.978 18.9489 216.339 19.178 215.812 19.6362C215.298 20.0806 215.013 20.6568 214.958 21.365H220.082ZM222.581 22.4898C222.581 22.6009 222.581 22.712 222.581 22.8231C222.581 22.9342 222.574 23.0453 222.56 23.1564H214.958C214.985 23.5174 215.076 23.8507 215.228 24.1562C215.395 24.4478 215.61 24.7047 215.874 24.9268C216.138 25.1351 216.436 25.3018 216.77 25.4267C217.103 25.5517 217.45 25.6142 217.811 25.6142C218.436 25.6142 218.964 25.5031 219.394 25.2809C219.825 25.0449 220.179 24.7255 220.456 24.3228L222.123 25.6559C221.137 26.9889 219.707 27.6555 217.832 27.6555C217.054 27.6555 216.339 27.5374 215.687 27.3014C215.034 27.0514 214.465 26.7043 213.979 26.2599C213.506 25.8156 213.131 25.274 212.854 24.6352C212.59 23.9826 212.458 23.2466 212.458 22.4273C212.458 21.6219 212.59 20.8929 212.854 20.2403C213.131 19.5737 213.506 19.0113 213.979 18.5531C214.451 18.081 215.006 17.7199 215.645 17.47C216.298 17.2061 216.999 17.0742 217.749 17.0742C218.443 17.0742 219.082 17.1923 219.665 17.4283C220.262 17.6505 220.776 17.9907 221.206 18.4489C221.637 18.8933 221.97 19.4557 222.206 20.1361C222.456 20.8027 222.581 21.5872 222.581 22.4898Z" fill="black"/>
<path d="M204.282 19.3656V17.366H206.032V14.4707H208.49V17.366H210.989V19.3656H208.49V24.0105C208.49 24.4549 208.566 24.8228 208.719 25.1144C208.885 25.4061 209.247 25.5519 209.802 25.5519C209.969 25.5519 210.149 25.538 210.344 25.5102C210.538 25.4685 210.712 25.413 210.864 25.3436L210.948 27.3015C210.725 27.3848 210.462 27.4473 210.156 27.489C209.851 27.5445 209.559 27.5723 209.281 27.5723C208.615 27.5723 208.073 27.482 207.657 27.3015C207.24 27.1071 206.907 26.8502 206.657 26.5308C206.421 26.1976 206.254 25.8226 206.157 25.4061C206.074 24.9756 206.032 24.5173 206.032 24.0313V19.3656H204.282Z" fill="black"/>
<path d="M201.189 20.032C200.967 19.7404 200.661 19.4904 200.272 19.2821C199.883 19.0599 199.46 18.9489 199.002 18.9489C198.599 18.9489 198.231 19.0322 197.898 19.1988C197.565 19.3654 197.398 19.6432 197.398 20.032C197.398 20.4208 197.578 20.6985 197.939 20.8651C198.314 21.0179 198.856 21.1776 199.564 21.3442C199.939 21.4275 200.314 21.5386 200.689 21.6775C201.078 21.8163 201.425 22.0038 201.73 22.2399C202.05 22.462 202.307 22.7467 202.501 23.0939C202.695 23.4271 202.793 23.8368 202.793 24.3228C202.793 24.9338 202.675 25.4545 202.439 25.885C202.216 26.3016 201.911 26.6418 201.522 26.9056C201.147 27.1695 200.703 27.3569 200.189 27.468C199.689 27.593 199.168 27.6555 198.627 27.6555C197.849 27.6555 197.092 27.5166 196.356 27.2389C195.62 26.9473 195.009 26.5376 194.523 26.01L196.169 24.4686C196.447 24.8296 196.808 25.1282 197.252 25.3643C197.696 25.6003 198.189 25.7184 198.731 25.7184C198.911 25.7184 199.092 25.6975 199.273 25.6559C199.467 25.6142 199.64 25.5517 199.793 25.4684C199.96 25.3712 200.092 25.2462 200.189 25.0935C200.286 24.9407 200.335 24.7533 200.335 24.5311C200.335 24.1145 200.14 23.816 199.752 23.6354C199.377 23.4549 198.807 23.2744 198.044 23.0939C197.669 23.0106 197.301 22.9064 196.94 22.7814C196.592 22.6426 196.28 22.469 196.002 22.2607C195.725 22.0385 195.502 21.7677 195.336 21.4484C195.169 21.129 195.086 20.7332 195.086 20.2611C195.086 19.7056 195.197 19.2266 195.419 18.8239C195.655 18.4212 195.961 18.0949 196.336 17.8449C196.711 17.5811 197.134 17.3867 197.606 17.2617C198.078 17.1367 198.564 17.0742 199.064 17.0742C199.786 17.0742 200.488 17.1992 201.168 17.4491C201.862 17.6991 202.411 18.081 202.813 18.5948L201.189 20.032Z" fill="black"/>
<path d="M190.202 17.3656H192.701V27.3636H190.202V17.3656ZM189.848 13.9704C189.848 13.5677 189.993 13.2206 190.285 12.9289C190.591 12.6235 190.972 12.4707 191.431 12.4707C191.889 12.4707 192.271 12.6165 192.576 12.9081C192.896 13.1858 193.055 13.5399 193.055 13.9704C193.055 14.4009 192.896 14.7619 192.576 15.0535C192.271 15.3313 191.889 15.4701 191.431 15.4701C190.972 15.4701 190.591 15.3243 190.285 15.0327C189.993 14.7272 189.848 14.3731 189.848 13.9704Z" fill="black"/>
<path d="M186.753 20.032C186.531 19.7404 186.226 19.4904 185.837 19.2821C185.448 19.0599 185.024 18.9489 184.566 18.9489C184.163 18.9489 183.795 19.0322 183.462 19.1988C183.129 19.3654 182.962 19.6432 182.962 20.032C182.962 20.4208 183.143 20.6985 183.504 20.8651C183.879 21.0179 184.42 21.1776 185.129 21.3442C185.503 21.4275 185.878 21.5386 186.253 21.6775C186.642 21.8163 186.989 22.0038 187.295 22.2399C187.614 22.462 187.871 22.7467 188.065 23.0939C188.26 23.4271 188.357 23.8368 188.357 24.3228C188.357 24.9338 188.239 25.4545 188.003 25.885C187.781 26.3016 187.475 26.6418 187.087 26.9056C186.712 27.1695 186.267 27.3569 185.753 27.468C185.254 27.593 184.733 27.6555 184.191 27.6555C183.414 27.6555 182.657 27.5166 181.921 27.2389C181.185 26.9473 180.574 26.5376 180.088 26.01L181.733 24.4686C182.011 24.8296 182.372 25.1282 182.817 25.3643C183.261 25.6003 183.754 25.7184 184.295 25.7184C184.476 25.7184 184.656 25.6975 184.837 25.6559C185.031 25.6142 185.205 25.5517 185.358 25.4684C185.524 25.3712 185.656 25.2462 185.753 25.0935C185.851 24.9407 185.899 24.7533 185.899 24.5311C185.899 24.1145 185.705 23.816 185.316 23.6354C184.941 23.4549 184.372 23.2744 183.608 23.0939C183.233 23.0106 182.865 22.9064 182.504 22.7814C182.157 22.6426 181.844 22.469 181.567 22.2607C181.289 22.0385 181.067 21.7677 180.9 21.4484C180.734 21.129 180.65 20.7332 180.65 20.2611C180.65 19.7056 180.761 19.2266 180.984 18.8239C181.22 18.4212 181.525 18.0949 181.9 17.8449C182.275 17.5811 182.698 17.3867 183.171 17.2617C183.643 17.1367 184.129 17.0742 184.629 17.0742C185.351 17.0742 186.052 17.1992 186.732 17.4491C187.427 17.6991 187.975 18.081 188.378 18.5948L186.753 20.032Z" fill="black"/>
<path d="M176.995 20.032C176.773 19.7404 176.468 19.4904 176.079 19.2821C175.69 19.0599 175.267 18.9489 174.808 18.9489C174.406 18.9489 174.038 19.0322 173.704 19.1988C173.371 19.3654 173.205 19.6432 173.205 20.032C173.205 20.4208 173.385 20.6985 173.746 20.8651C174.121 21.0179 174.663 21.1776 175.371 21.3442C175.746 21.4275 176.121 21.5386 176.496 21.6775C176.884 21.8163 177.232 22.0038 177.537 22.2399C177.856 22.462 178.113 22.7467 178.308 23.0939C178.502 23.4271 178.599 23.8368 178.599 24.3228C178.599 24.9338 178.481 25.4545 178.245 25.885C178.023 26.3016 177.718 26.6418 177.329 26.9056C176.954 27.1695 176.509 27.3569 175.996 27.468C175.496 27.593 174.975 27.6555 174.433 27.6555C173.656 27.6555 172.899 27.5166 172.163 27.2389C171.427 26.9473 170.816 26.5376 170.33 26.01L171.976 24.4686C172.253 24.8296 172.614 25.1282 173.059 25.3643C173.503 25.6003 173.996 25.7184 174.538 25.7184C174.718 25.7184 174.899 25.6975 175.079 25.6559C175.274 25.6142 175.447 25.5517 175.6 25.4684C175.767 25.3712 175.898 25.2462 175.996 25.0935C176.093 24.9407 176.141 24.7533 176.141 24.5311C176.141 24.1145 175.947 23.816 175.558 23.6354C175.183 23.4549 174.614 23.2744 173.85 23.0939C173.475 23.0106 173.107 22.9064 172.746 22.7814C172.399 22.6426 172.087 22.469 171.809 22.2607C171.531 22.0385 171.309 21.7677 171.142 21.4484C170.976 21.129 170.892 20.7332 170.892 20.2611C170.892 19.7056 171.004 19.2266 171.226 18.8239C171.462 18.4212 171.767 18.0949 172.142 17.8449C172.517 17.5811 172.941 17.3867 173.413 17.2617C173.885 17.1367 174.371 17.0742 174.871 17.0742C175.593 17.0742 176.294 17.1992 176.975 17.4491C177.669 17.6991 178.217 18.081 178.62 18.5948L176.995 20.032Z" fill="black"/>
<path d="M160.238 12.6172H162.508L168.861 27.3643H165.862L164.487 23.99H158.092L156.759 27.3643H153.822L160.238 12.6172ZM163.57 21.7404L161.3 15.7416L158.988 21.7404H163.57Z" fill="black"/>
<path d="M141.241 19.4251V17.4255H142.991V14.5303H145.449V17.4255H147.948V19.4251H145.449V24.0701C145.449 24.5144 145.525 24.8824 145.678 25.174C145.844 25.4656 146.206 25.6114 146.761 25.6114C146.928 25.6114 147.108 25.5975 147.303 25.5698C147.497 25.5281 147.671 25.4726 147.823 25.4031L147.907 27.3611C147.684 27.4444 147.421 27.5069 147.115 27.5486C146.81 27.6041 146.518 27.6319 146.24 27.6319C145.574 27.6319 145.032 27.5416 144.616 27.3611C144.199 27.1667 143.866 26.9098 143.616 26.5904C143.38 26.2571 143.213 25.8822 143.116 25.4656C143.033 25.0352 142.991 24.5769 142.991 24.0909V19.4251H141.241Z" fill="black"/>
<path d="M133.815 17.4254H136.211V19.0917H136.252C136.53 18.5085 136.919 18.0364 137.419 17.6753C137.919 17.3143 138.502 17.1338 139.169 17.1338C139.266 17.1338 139.37 17.1407 139.481 17.1546C139.592 17.1546 139.689 17.1685 139.773 17.1963V19.4875C139.606 19.4458 139.46 19.4181 139.335 19.4042C139.224 19.3903 139.113 19.3833 139.002 19.3833C138.433 19.3833 137.974 19.4875 137.627 19.6958C137.28 19.9041 137.009 20.154 136.815 20.4456C136.62 20.7372 136.489 21.0358 136.419 21.3413C136.35 21.6468 136.315 21.8898 136.315 22.0703V27.4234H133.815V17.4254Z" fill="black"/>
<path d="M129.847 21.4246C129.847 21.1052 129.799 20.7997 129.701 20.5081C129.618 20.2165 129.479 19.9596 129.285 19.7374C129.09 19.5153 128.84 19.3417 128.535 19.2167C128.243 19.0779 127.896 19.0084 127.493 19.0084C126.744 19.0084 126.105 19.2375 125.577 19.6958C125.063 20.1401 124.779 20.7164 124.723 21.4246H129.847ZM132.347 22.5494C132.347 22.6605 132.347 22.7716 132.347 22.8827C132.347 22.9938 132.34 23.1048 132.326 23.2159H124.723C124.751 23.577 124.841 23.9102 124.994 24.2157C125.161 24.5073 125.376 24.7642 125.64 24.9864C125.903 25.1947 126.202 25.3613 126.535 25.4863C126.869 25.6113 127.216 25.6738 127.577 25.6738C128.202 25.6738 128.729 25.5627 129.16 25.3405C129.59 25.1044 129.944 24.7851 130.222 24.3824L131.888 25.7154C130.902 27.0485 129.472 27.715 127.598 27.715C126.82 27.715 126.105 27.597 125.452 27.3609C124.8 27.111 124.23 26.7638 123.744 26.3195C123.272 25.8751 122.897 25.3336 122.619 24.6948C122.356 24.0422 122.224 23.3062 122.224 22.4869C122.224 21.6815 122.356 20.9525 122.619 20.2998C122.897 19.6333 123.272 19.0709 123.744 18.6127C124.216 18.1405 124.772 17.7795 125.411 17.5295C126.063 17.2657 126.764 17.1338 127.514 17.1338C128.209 17.1338 128.847 17.2518 129.431 17.4879C130.028 17.7101 130.541 18.0503 130.972 18.5085C131.402 18.9529 131.736 19.5153 131.972 20.1957C132.222 20.8622 132.347 21.6468 132.347 22.5494Z" fill="black"/>
<path d="M112.381 17.4254V18.821H112.443C112.568 18.6266 112.728 18.4321 112.922 18.2377C113.131 18.0294 113.381 17.8489 113.672 17.6962C113.964 17.5295 114.29 17.3976 114.651 17.3004C115.026 17.1893 115.443 17.1338 115.901 17.1338C116.609 17.1338 117.262 17.2727 117.859 17.5504C118.456 17.8142 118.97 18.1822 119.4 18.6543C119.831 19.1265 120.164 19.6819 120.4 20.3207C120.636 20.9594 120.754 21.6468 120.754 22.3828C120.754 23.1187 120.636 23.813 120.4 24.4657C120.178 25.1044 119.851 25.6668 119.421 26.1529C119.004 26.625 118.491 27.0069 117.88 27.2985C117.283 27.5762 116.602 27.715 115.838 27.715C115.13 27.715 114.478 27.5692 113.88 27.2776C113.297 26.986 112.846 26.5903 112.527 26.0904H112.485V32.4225H109.985V17.4254H112.381ZM118.213 22.3828C118.213 21.9939 118.15 21.6121 118.025 21.2371C117.914 20.8483 117.741 20.5012 117.505 20.1957C117.269 19.8902 116.97 19.6472 116.609 19.4667C116.248 19.2723 115.824 19.1751 115.338 19.1751C114.88 19.1751 114.471 19.2723 114.11 19.4667C113.749 19.6611 113.436 19.911 113.172 20.2165C112.922 20.522 112.728 20.8692 112.589 21.258C112.464 21.6468 112.402 22.0356 112.402 22.4244C112.402 22.8132 112.464 23.202 112.589 23.5909C112.728 23.9658 112.922 24.306 113.172 24.6115C113.436 24.917 113.749 25.1669 114.11 25.3613C114.471 25.5419 114.88 25.6321 115.338 25.6321C115.824 25.6321 116.248 25.5349 116.609 25.3405C116.97 25.1461 117.269 24.8962 117.505 24.5907C117.741 24.2852 117.914 23.938 118.025 23.5492C118.15 23.1604 118.213 22.7716 118.213 22.3828Z" fill="black"/>
<path d="M101.352 22.1124L97.7483 17.4258H100.748L102.914 20.5293L105.143 17.4258H108.017L104.434 22.1124L108.517 27.4238H105.476L102.872 23.7787L100.248 27.4238H97.29L101.352 22.1124Z" fill="black"/>
<path d="M85.6777 12.6768H95.4467V14.968H88.3022V18.7172H95.0717V20.9251H88.3022V25.091H95.8216V27.4239H85.6777V12.6768Z" fill="black"/>
</svg>
