<?xml version="1.0" encoding="UTF-8"?>
<svg width="1440px" height="310px" viewBox="0 0 1440 310" version="1.1" xmlns="http://www.w3.org/2000/svg" xmlns:xlink="http://www.w3.org/1999/xlink">
    <!-- Generator: sketchtool 53.2 (72643) - https://sketchapp.com -->
    <title>64B6C2F3-5463-4B2A-9E09-96441B23B251</title>
    <desc>Created with sketchtool.</desc>
    <defs>
        <linearGradient x1="108.97664%" y1="47.323396%" x2="0%" y2="52.3172261%" id="linearGradient-1">
            <stop stop-color="#00C1BF" offset="0%"></stop>
            <stop stop-color="#53B700" offset="100%"></stop>
        </linearGradient>
        <rect id="path-2" x="0" y="0" width="1440" height="310"></rect>
        <linearGradient x1="138.377939%" y1="-26.5164865%" x2="13.7002988%" y2="92.7547503%" id="linearGradient-4">
            <stop stop-color="#B9BDC4" offset="0%"></stop>
            <stop stop-color="#D3D6DB" offset="100%"></stop>
        </linearGradient>
    </defs>
    <g id="Final-Design-+-Copy-Content" stroke="none" stroke-width="1" fill="none" fill-rule="evenodd">
        <g id="02a_Topics_Landing_Desktop" transform="translate(0.000000, -2749.000000)">
            <g id="payments_banner" transform="translate(0.000000, 2749.000000)">
                <g transform="translate(0.000000, -0.994862)" id="banner">
                    <g transform="translate(0.000000, 0.994862)">
                        <g id="on-page-banner">
                            <mask id="mask-3" fill="white">
                                <use xlink:href="#path-2"></use>
                            </mask>
                            <use id="Mask" fill="url(#linearGradient-1)" xlink:href="#path-2"></use>
                            <g id="Beams" style="mix-blend-mode: multiply;" mask="url(#mask-3)">
                                <g transform="translate(878.000000, 44.642737)">
                                    <path d="M578.599557,124.393633 L578.599557,124.393633 C578.470981,124.266389 578.330715,124.162279 578.202139,124.037927 C552.302738,98.8174558 510.664402,98.921565 487.120289,122.22469 L192.326485,413.964896 C164.267583,441.73026 164.267583,483.235156 190.13484,508.837361 C216.002097,534.433782 257.941418,534.433782 283.805753,508.837361 L371.410193,422.137473 L578.599557,217.097156 C604.466814,191.497843 604.466814,149.992946 578.599557,124.393633" id="Fill-4-Copy-76" fill="#ECEEF1"></path>
                                    <path d="M592.599557,19.6058568 L592.599557,19.6058568 C592.470981,19.4786122 592.330715,19.3745029 592.202139,19.2501501 C566.302738,-5.97032081 524.664402,-5.86621154 501.120289,17.4369137 L206.326485,309.177119 C178.267583,336.942483 178.267583,378.447379 204.13484,404.049584 C230.002097,429.646005 271.941418,429.646005 297.805753,404.049584 L385.410193,317.349697 L592.599557,112.309379 C618.466814,86.710066 618.466814,45.2051699 592.599557,19.6058568" id="Fill-4-Copy-77" fill="url(#linearGradient-4)"></path>
                                    <path d="M407.599557,106.599483 L407.599557,106.599483 C407.470981,106.472238 407.330715,106.368129 407.202139,106.243776 C381.302738,81.023305 339.664402,81.1274143 316.120289,104.43054 L21.326485,396.170745 C-6.7324171,423.936109 -6.7324171,465.441005 19.1348399,491.04321 C45.0020969,516.639631 86.9414183,516.639631 112.805753,491.04321 L200.410193,404.343323 L407.599557,199.303005 C433.466814,173.703692 433.466814,132.198796 407.599557,106.599483" id="Fill-4-Copy-78" fill="#E3E5E8"></path>
                                    <path d="M202.357234,403.47561 C178.311895,377.635188 178.923505,337.157456 206.230504,309.876962 L409.377069,106.906443 C433.424813,132.74302 432.861413,173.1741 407.68687,198.326827 L202.357244,403.475622 Z" id="Combined-Shape-Copy-17" fill="#BABEC5"></path>
                                </g>
                            </g>
                        </g>
                    </g>
                </g>
            </g>
        </g>
    </g>
</svg>