<svg width="320" height="82" viewBox="0 0 320 82" fill="none" xmlns="http://www.w3.org/2000/svg">
<path fill-rule="evenodd" clip-rule="evenodd" d="M0 0V81.2377H49.7035V69.2518H12.0906V11.9858H137.909V69.2518H65.8233L53.7342 81.2377H150V0H0Z" fill="white"/>
<path fill-rule="evenodd" clip-rule="evenodd" d="M101.994 54.1549V24.0669H122.23V30.2297H109.009V35.8808H121.507V41.704H109.009V47.9513H122.994V54.1549H101.994Z" fill="white"/>
<path fill-rule="evenodd" clip-rule="evenodd" d="M30.001 54.1549V24.0669H36.9432V47.8231H48.001V54.1549H30.001Z" fill="white"/>
<path fill-rule="evenodd" clip-rule="evenodd" d="M54.0161 54.1547H60.0161V24.0667H54.0161V54.1547Z" fill="white"/>
<path fill-rule="evenodd" clip-rule="evenodd" d="M84.5038 54.1549H77.2979L66.0063 24.0669H74.0967L81.0063 45.402H81.1754L88.0432 24.0669H96.0064L84.5038 54.1549Z" fill="white"/>
<path d="M316.569 38.7138C316.124 38.13 315.512 37.6295 314.734 37.2125C313.955 36.7677 313.107 36.5452 312.19 36.5452C311.383 36.5452 310.647 36.7121 309.979 37.0457C309.312 37.3793 308.979 37.9353 308.979 38.7138C308.979 39.4923 309.34 40.0483 310.063 40.3819C310.814 40.6877 311.898 41.0075 313.316 41.3411C314.066 41.5079 314.817 41.7303 315.568 42.0083C316.346 42.2863 317.041 42.6617 317.653 43.1343C318.292 43.5791 318.807 44.1491 319.196 44.8441C319.585 45.5114 319.78 46.3315 319.78 47.3046C319.78 48.5279 319.543 49.5704 319.071 50.4323C318.626 51.2664 318.014 51.9475 317.236 52.4757C316.485 53.004 315.595 53.3793 314.567 53.6017C313.566 53.8519 312.523 53.977 311.439 53.977C309.882 53.977 308.367 53.699 306.893 53.143C305.42 52.5591 304.197 51.739 303.224 50.6825L306.518 47.5965C307.074 48.3194 307.797 48.9171 308.687 49.3897C309.576 49.8624 310.563 50.0987 311.648 50.0987C312.009 50.0987 312.37 50.057 312.732 49.9736C313.121 49.8902 313.469 49.7651 313.774 49.5982C314.108 49.4036 314.372 49.1534 314.567 48.8476C314.761 48.5418 314.859 48.1664 314.859 47.7216C314.859 46.8876 314.47 46.2898 313.691 45.9284C312.94 45.567 311.801 45.2055 310.271 44.8441C309.521 44.6773 308.784 44.4688 308.061 44.2186C307.366 43.9406 306.741 43.593 306.185 43.176C305.628 42.7312 305.184 42.189 304.85 41.5496C304.516 40.9101 304.35 40.1178 304.35 39.1725C304.35 38.0605 304.572 37.1013 305.017 36.295C305.489 35.4888 306.101 34.8354 306.852 34.335C307.602 33.8068 308.45 33.4175 309.396 33.1673C310.341 32.9171 311.314 32.792 312.315 32.792C313.761 32.792 315.165 33.0422 316.527 33.5426C317.917 34.0431 319.015 34.8076 319.821 35.8363L316.569 38.7138Z" fill="white"/>
<path d="M286.795 37.3795V33.376H290.298V27.5793H295.219V33.376H300.224V37.3795H295.219V46.6793C295.219 47.5689 295.372 48.3057 295.678 48.8895C296.012 49.4733 296.735 49.7653 297.847 49.7653C298.18 49.7653 298.542 49.7375 298.931 49.6819C299.32 49.5985 299.668 49.4872 299.974 49.3482L300.14 53.2683C299.695 53.4351 299.167 53.5602 298.556 53.6436C297.944 53.7548 297.36 53.8104 296.804 53.8104C295.47 53.8104 294.385 53.6297 293.551 53.2683C292.717 52.8791 292.05 52.3647 291.55 51.7253C291.077 51.0581 290.743 50.3074 290.549 49.4733C290.382 48.6115 290.298 47.694 290.298 46.721V37.3795H286.795Z" fill="white"/>
<path d="M271.868 33.3758H276.664V36.7121H276.747C277.303 35.5444 278.082 34.5991 279.083 33.8763C280.084 33.1534 281.251 32.792 282.586 32.792C282.78 32.792 282.989 32.8059 283.211 32.8337C283.434 32.8337 283.628 32.8615 283.795 32.9171V37.5044C283.462 37.421 283.17 37.3654 282.919 37.3376C282.697 37.3098 282.475 37.2959 282.252 37.2959C281.112 37.2959 280.195 37.5044 279.5 37.9214C278.805 38.3385 278.263 38.8389 277.873 39.4227C277.484 40.0066 277.22 40.6043 277.081 41.216C276.942 41.8276 276.873 42.3141 276.873 42.6756V53.3932H271.868V33.3758Z" fill="white"/>
<path d="M263.864 41.3828C263.864 40.7433 263.767 40.1317 263.572 39.5479C263.405 38.964 263.127 38.4497 262.738 38.0049C262.349 37.56 261.848 37.2125 261.237 36.9623C260.653 36.6843 259.958 36.5452 259.151 36.5452C257.65 36.5452 256.371 37.004 255.315 37.9214C254.286 38.8111 253.716 39.9649 253.605 41.3828H263.864ZM268.868 43.6347C268.868 43.8572 268.868 44.0796 268.868 44.302C268.868 44.5244 268.854 44.7468 268.826 44.9692H253.605C253.661 45.6921 253.841 46.3593 254.147 46.971C254.481 47.5548 254.912 48.0691 255.44 48.514C255.968 48.931 256.566 49.2646 257.233 49.5148C257.9 49.7651 258.595 49.8902 259.318 49.8902C260.569 49.8902 261.626 49.6677 262.488 49.2229C263.349 48.7503 264.058 48.1108 264.614 47.3046L267.951 49.9736C265.977 52.6426 263.113 53.977 259.36 53.977C257.803 53.977 256.371 53.7407 255.065 53.2681C253.758 52.7677 252.618 52.0726 251.645 51.183C250.7 50.2933 249.949 49.209 249.393 47.9301C248.865 46.6234 248.601 45.1499 248.601 43.5096C248.601 41.8971 248.865 40.4375 249.393 39.1308C249.949 37.7963 250.7 36.6704 251.645 35.7529C252.59 34.8076 253.702 34.0848 254.981 33.5843C256.288 33.0561 257.692 32.792 259.193 32.792C260.583 32.792 261.862 33.0283 263.03 33.5009C264.225 33.9458 265.254 34.6269 266.116 35.5444C266.978 36.434 267.645 37.56 268.118 38.9223C268.618 40.2568 268.868 41.8276 268.868 43.6347Z" fill="white"/>
<path d="M228.836 33.3758V36.1699H228.961C229.211 35.7807 229.531 35.3915 229.92 35.0022C230.337 34.5852 230.838 34.2238 231.421 33.918C232.005 33.5843 232.659 33.3202 233.381 33.1256C234.132 32.9032 234.966 32.792 235.884 32.792C237.302 32.792 238.608 33.07 239.804 33.626C240.999 34.1543 242.028 34.891 242.89 35.8363C243.752 36.7816 244.419 37.8936 244.891 39.1725C245.364 40.4514 245.6 41.8276 245.6 43.3011C245.6 44.7746 245.364 46.1647 244.891 47.4714C244.447 48.7503 243.793 49.8763 242.931 50.8493C242.097 51.7946 241.069 52.5591 239.845 53.143C238.65 53.699 237.288 53.977 235.759 53.977C234.341 53.977 233.034 53.6851 231.838 53.1013C230.671 52.5174 229.767 51.7251 229.128 50.7242H229.044V63.4019H224.04V33.3758H228.836ZM240.513 43.3011C240.513 42.5227 240.388 41.7581 240.137 41.0075C239.915 40.229 239.567 39.534 239.095 38.9223C238.622 38.3107 238.024 37.8241 237.302 37.4627C236.579 37.0735 235.731 36.8789 234.758 36.8789C233.84 36.8789 233.02 37.0735 232.297 37.4627C231.574 37.8519 230.949 38.3524 230.421 38.964C229.92 39.5757 229.531 40.2707 229.253 41.0492C229.003 41.8276 228.878 42.6061 228.878 43.3845C228.878 44.163 229.003 44.9414 229.253 45.7199C229.531 46.4705 229.92 47.1517 230.421 47.7633C230.949 48.375 231.574 48.8754 232.297 49.2646C233.02 49.626 233.84 49.8068 234.758 49.8068C235.731 49.8068 236.579 49.6121 237.302 49.2229C238.024 48.8337 238.622 48.3333 239.095 47.7216C239.567 47.11 239.915 46.4149 240.137 45.6365C240.388 44.858 240.513 44.0796 240.513 43.3011Z" fill="white"/>
<path d="M206.694 42.7591L199.479 33.376H205.485L209.822 39.5897L214.284 33.376H220.039L212.866 42.7591L221.04 53.3933H214.951L209.738 46.0953L204.484 53.3933H198.562L206.694 42.7591Z" fill="white"/>
<path d="M175.253 23.8677H194.812V28.455H180.507V35.9615H194.061V40.382H180.507V48.7226H195.562V53.3933H175.253V23.8677Z" fill="white"/>
</svg>
