<svg width="72" height="72" viewBox="0 0 72 72" fill="none" xmlns="http://www.w3.org/2000/svg">
<path d="M0 36C0 16.1177 16.1177 0 36 0V0C55.8823 0 72 16.1177 72 36V36C72 55.8823 55.8823 72 36 72V72C16.1177 72 0 55.8823 0 36V36Z" fill="#07C4D9"/>
<path fill-rule="evenodd" clip-rule="evenodd" d="M40.7422 24.3192C38.428 22.9968 35.7062 22.6677 33.1481 23.4104L33.1423 23.4121C30.8088 24.0788 28.814 25.5522 27.7937 27.5787C27.2728 28.7036 27.1786 29.7591 27.0846 31.3461C27.0854 31.4201 27.0884 31.5234 27.0923 31.6629C27.0934 31.7006 27.0945 31.7411 27.0957 31.7843C27.1017 32.0005 27.108 32.262 27.108 32.525C27.1081 32.7834 27.102 33.07 27.079 33.3327C27.0621 33.5263 27.0217 33.9428 26.8399 34.3065C26.8079 34.3705 26.7711 34.432 26.7298 34.4905L24.5018 37.6468L26.4173 38.6501C26.8855 38.8954 27.179 39.3803 27.179 39.9089V43.784C27.179 44.3224 27.6769 44.8203 28.2153 44.8203H30.9562C31.4483 44.8203 31.9054 45.0749 32.1645 45.4934L30.9562 46.2414C32.1645 45.4934 32.1643 45.4931 32.1645 45.4934L32.1651 45.4945L32.1659 45.4958L32.1678 45.4989L32.173 45.5073L32.1884 45.5328C32.2009 45.5536 32.2178 45.582 32.2384 45.6175C32.2796 45.6885 32.336 45.7883 32.4031 45.9132C32.537 46.1625 32.715 46.5156 32.8993 46.9433C33.2617 47.7847 33.6769 48.9806 33.7896 50.2769C33.8576 51.0588 33.2789 51.7477 32.497 51.8157C31.7151 51.8837 31.0262 51.305 30.9582 50.5231C30.8819 49.6456 30.5882 48.7622 30.2891 48.0677C30.2256 47.9204 30.1632 47.7846 30.1045 47.6624H28.2153C26.1072 47.6624 24.3369 45.892 24.3369 43.784V40.7688L23.1236 40.1333C21.5447 39.3334 21.204 37.3794 22.1414 36.0623L24.2484 33.0775C24.2604 32.9363 24.2659 32.7471 24.2659 32.525C24.2659 32.3035 24.2605 32.0748 24.2547 31.8627C24.2537 31.8294 24.2528 31.7956 24.2518 31.7616C24.2471 31.5958 24.2423 31.4276 24.2423 31.3081C24.2423 31.2803 24.2431 31.2524 24.2448 31.2247C24.3385 29.6317 24.436 28.0529 25.2263 26.3595C25.2317 26.3479 25.2373 26.3364 25.243 26.3249C26.6822 23.4466 29.4071 21.5242 32.3587 20.6801C35.6586 19.723 39.1723 20.1497 42.1494 21.8499C44.5865 23.2282 46.605 25.4515 47.6765 28.1217L47.6791 28.1278C47.6849 28.1417 47.6923 28.1597 47.7011 28.1817C47.7186 28.2256 47.7418 28.2854 47.7692 28.3602C47.8239 28.5095 47.8953 28.719 47.9715 28.9806C48.1235 29.5024 48.2965 30.2392 48.3896 31.1239C48.5725 32.8614 48.4511 35.2181 47.2073 37.6204C47.1914 37.6725 47.1703 37.7427 47.145 37.8297C47.082 38.0462 46.9932 38.3657 46.8933 38.7668C46.693 39.5708 46.4507 40.6927 46.2821 41.9626C45.9363 44.5674 45.9393 47.5259 46.9808 49.689C47.3213 50.3962 47.024 51.2454 46.3169 51.5859C45.6098 51.9263 44.7605 51.6291 44.42 50.922C43.0042 47.9813 43.1016 44.3238 43.4647 41.5886C43.6506 40.1884 43.9163 38.9592 44.1354 38.0798C44.2452 37.6391 44.3439 37.2837 44.4161 37.0357C44.4522 36.9117 44.4817 36.8143 44.5026 36.7464C44.5131 36.7125 44.5215 36.6859 44.5275 36.6669L44.5347 36.6444L44.5369 36.6375L44.5377 36.6351C44.5378 36.6348 44.5382 36.6335 45.8895 37.0735L44.5382 36.6335C44.5639 36.5546 44.5965 36.478 44.6356 36.4048C45.6003 34.5959 45.7079 32.7972 45.5631 31.4214C45.4909 30.7349 45.3567 30.1662 45.2428 29.7753C45.1861 29.5806 45.135 29.432 45.1003 29.3373C45.083 29.29 45.0699 29.2563 45.0622 29.2372L45.0551 29.2198L45.0559 29.2216L45.0566 29.2231C45.0518 29.2119 45.0471 29.2008 45.0426 29.1895C44.223 27.1404 42.6536 25.3995 40.748 24.3225L40.7422 24.3192ZM24.2331 33.2047C24.2315 33.2131 24.2313 33.2117 24.2336 33.2024C24.2334 33.2033 24.2332 33.2041 24.2331 33.2047Z" fill="white"/>
<path d="M39.5072 27.7118C38.6383 26.8428 37.19 26.8428 36.321 27.7118L35.7418 28.2911L35.1624 27.7118C34.2934 26.8428 32.8452 26.8428 31.9762 27.7118C31.1072 28.5807 31.1072 30.029 31.9762 30.898L32.5555 31.4773L35.7418 34.6635L38.9279 31.4773L39.5072 30.898C40.3762 30.029 40.3762 28.5807 39.5072 27.7118Z" fill="white"/>
</svg>
