<svg width="72" height="72" viewBox="0 0 72 72" fill="none" xmlns="http://www.w3.org/2000/svg">
<rect width="72" height="72" rx="36" fill="#07C4D9"/>
<path d="M0 36C0 16.1178 16.1178 0 36 0C55.8823 0 72 16.1178 72 36C72 55.8823 55.8823 72 36 72C16.1178 72 0 55.8823 0 36Z" fill="#07C4D9"/>
<g clip-path="url(#clip0_380_1317)">
<path fill-rule="evenodd" clip-rule="evenodd" d="M27.0428 23.04C27.0428 21.1992 28.543 19.699 30.3838 19.699C34.4327 19.699 37.6609 22.9272 37.6609 26.976V31.891H45.5518C47.668 31.891 49.2115 33.7257 48.8735 35.7536L48.4937 38.0327C48.3272 39.2727 47.5232 40.3215 46.3099 40.7025L46.1501 40.7664L44.8415 48.6176C44.838 48.6391 44.8339 48.6605 44.8293 48.6818C44.4159 50.6112 42.7388 52.2051 40.5598 52.2051C39.3993 52.2051 38.4351 52.2286 37.5224 52.2508C35.8255 52.2921 34.3061 52.3292 32.033 52.2029L32.0173 52.2019C30.4506 52.0975 29.0535 51.7824 27.9361 51.3354C27.9224 51.33 27.9087 51.3243 27.8952 51.3183C25.8476 50.4243 24.5242 48.9702 23.8055 47.1893C23.1055 45.4546 23.0108 43.4942 23.2233 41.5681C23.6469 37.7306 25.3439 33.5916 26.8007 30.5811C26.8192 30.5428 26.8394 30.5054 26.8613 30.4689C26.9529 30.3163 27.0428 29.9523 27.0428 29.472V23.04ZM30.3838 22.5411C30.1126 22.5411 29.8849 22.7688 29.8849 23.04V29.472C29.8849 30.1262 29.788 31.073 29.3354 31.8678C27.919 34.8021 26.4147 38.5598 26.0483 41.8799C25.8649 43.5419 25.9801 44.9834 26.4411 46.1257C26.8813 47.2164 27.6642 48.1108 29.0122 48.7048C29.8113 49.0214 30.8999 49.2783 32.1987 49.3656C34.3664 49.4858 35.7055 49.4521 37.316 49.4116C38.2391 49.3884 39.2513 49.363 40.5598 49.363C41.2525 49.363 41.8727 48.8572 42.0443 48.1135L43.4781 39.5104C43.5597 39.0206 43.8911 38.609 44.3521 38.4246L45.3121 38.0406C45.357 38.0226 45.4029 38.0069 45.4494 37.9936C45.5043 37.978 45.5456 37.9501 45.58 37.9082C45.6155 37.8648 45.6607 37.784 45.6777 37.6478C45.6801 37.6286 45.6829 37.6095 45.6861 37.5904L46.0701 35.2864C46.0958 35.1322 46.0519 35.0015 45.9706 34.9062C45.8925 34.8146 45.7596 34.7331 45.5518 34.7331H36.2398C35.455 34.7331 34.8188 34.0968 34.8188 33.312V26.976C34.8188 24.4968 32.863 22.5411 30.3838 22.5411Z" fill="white"/>
</g>
<defs>
<clipPath id="clip0_380_1317">
<rect width="25.824" height="32.64" fill="white" transform="translate(23.0879 19.68)"/>
</clipPath>
</defs>
</svg>
