<svg xmlns="http://www.w3.org/2000/svg" viewBox="0 0 560 720" width="560" height="720" fill="currentColor" aria-hidden="true">
  
  <g opacity="0.12" transform="translate(12 14)">
    <rect x="176" y="24" width="187" height="24"></rect>
    <rect x="134" y="64" width="292" height="24"></rect>
    <rect x="93" y="104" width="343" height="24"></rect>
    <rect x="56" y="144" width="385" height="24"></rect>
    <rect x="36" y="184" width="410" height="24"></rect>
    <rect x="25" y="224" width="427" height="24"></rect>
    <rect x="30" y="264" width="422" height="24"></rect>
    <rect x="41" y="304" width="416" height="24"></rect>
    <rect x="46" y="344" width="411" height="24"></rect>
    <rect x="46" y="384" width="411" height="24"></rect>
    <rect x="46" y="424" width="411" height="24"></rect>
    <rect x="322" y="464" width="145" height="24"></rect>
    <rect x="353" y="504" width="119" height="24"></rect>
    <rect x="374" y="544" width="104" height="24"></rect>
    <rect x="394" y="584" width="146" height="24"></rect>
    <rect x="426" y="624" width="100" height="24"></rect>
  </g>
  <g>
    <rect x="176" y="24" width="52" height="24" opacity="0.14"></rect><rect x="238" y="24" width="125" height="24" opacity="0.14"></rect>
    <rect x="134" y="64" width="208" height="24" opacity="0.18"></rect><rect x="352" y="64" width="74" height="24" opacity="0.18"></rect>
    <rect x="93" y="104" width="83" height="24" opacity="0.22"></rect><rect x="186" y="104" width="250" height="24" opacity="0.22"></rect>
    <rect x="56" y="144" width="250" height="24" opacity="0.26"></rect><rect x="316" y="144" width="125" height="24" opacity="0.26"></rect>
    <rect x="36" y="184" width="114" height="24" opacity="0.30"></rect><rect x="160" y="184" width="286" height="24" opacity="0.30"></rect>
    <rect x="25" y="224" width="349" height="24" opacity="0.34"></rect><rect x="384" y="224" width="68" height="24" opacity="0.34"></rect>
    <rect x="30" y="264" width="390" height="24" opacity="0.40"></rect><rect x="430" y="264" width="22" height="24" opacity="0.40"></rect>
    <rect x="41" y="304" width="379" height="24" opacity="0.46"></rect><rect x="430" y="304" width="27" height="24" opacity="0.46"></rect>
    <rect x="46" y="344" width="374" height="24" opacity="0.52"></rect><rect x="430" y="344" width="27" height="24" opacity="0.52"></rect>
    <rect x="46" y="384" width="374" height="24" opacity="0.58"></rect><rect x="430" y="384" width="27" height="24" opacity="0.58"></rect>
    <rect x="46" y="424" width="374" height="24" opacity="0.64"></rect><rect x="430" y="424" width="27" height="24" opacity="0.64"></rect>
    <rect x="322" y="464" width="98" height="24" opacity="0.72"></rect><rect x="430" y="464" width="37" height="24" opacity="0.72"></rect>
    <rect x="353" y="504" width="67" height="24" opacity="0.80"></rect><rect x="430" y="504" width="42" height="24" opacity="0.80"></rect>
    <rect x="374" y="544" width="46" height="24" opacity="0.88"></rect><rect x="430" y="544" width="48" height="24" opacity="0.88"></rect>
    <rect x="394" y="584" width="26" height="24" opacity="0.96"></rect><rect x="430" y="584" width="110" height="24" opacity="0.96"></rect>
    <rect x="430" y="624" width="96" height="24" opacity="1"></rect>
  </g>
</svg>