<svg xmlns="http://www.w3.org/2000/svg" viewBox="0 0 560 720" width="560" height="720" fill="none" aria-hidden="true">
  
  <g stroke="currentColor" stroke-width="1.25">
    <line x1="120" y1="40" x2="120" y2="680"></line>
    <line x1="200" y1="120" x2="200" y2="680"></line>
    <line x1="280" y1="80" x2="280" y2="680"></line>
    <line x1="360" y1="180" x2="360" y2="680"></line>
    <line x1="440" y1="60" x2="440" y2="680"></line>
    <line x1="80" y1="200" x2="520" y2="200" opacity="0.55"></line>
    <line x1="80" y1="320" x2="520" y2="320" opacity="0.55"></line>
    <line x1="80" y1="440" x2="520" y2="440" opacity="0.55"></line>
    <line x1="80" y1="560" x2="520" y2="560" opacity="0.55"></line>
    <line x1="80" y1="640" x2="520" y2="640"></line>
    <line x1="80" y1="648" x2="520" y2="648"></line>
    <path d="M120 200 A80 60 0 0 1 280 200" opacity="0.85"></path>
    <path d="M200 320 A90 70 0 0 1 440 320" opacity="0.7"></path>
    <path d="M280 440 A60 48 0 0 1 440 440" opacity="0.85"></path>
    <path d="M112 312 l6 8 12 -16"></path>
    <path d="M352 552 l6 8 12 -16"></path>
  </g>
  <g fill="currentColor">
    <circle cx="120" cy="200" r="3"></circle>
    <circle cx="280" cy="200" r="3"></circle>
    <circle cx="200" cy="320" r="3"></circle>
    <circle cx="440" cy="320" r="3"></circle>
    <circle cx="280" cy="440" r="3"></circle>
    <circle cx="440" cy="440" r="3"></circle>
  </g>
</svg>