<svg viewBox="0 0 720 184" width="100%" style="display:block;overflow:visible;" data-viz="cleanup-timeline" data-viz-state="FINAL" role="img" aria-label="Week-by-week cleanup schedule for a file six months behind. Week 1: scope and access. Weeks 2 to 3: categorise and correct transactions. Weeks 3 to 4: reconcile every account. Week 5: review and corrected statements. Week 5: CPA-ready handoff. Indicative, not a guarantee.">
  <line x1="40" y1="58" x2="688" y2="58" stroke="#ECE5D8" stroke-width="2"/>
  <g font-family="'Spline Sans Mono',monospace" font-size="11" fill="#9C9484" text-anchor="middle">
    <text x="76" y="30">WK 1</text><text x="228" y="30">WK 2&#8211;3</text><text x="380" y="30">WK 3&#8211;4</text><text x="532" y="30">WK 5</text><text x="660" y="30">WK 5</text>
  </g>
  <line x1="40" y1="58" x2="688" y2="58" stroke="#0E4A50" stroke-width="2"/>
  <g>
    <circle cx="76" cy="58" r="6" fill="#0E4A50"/><circle cx="228" cy="58" r="6" fill="#0E4A50"/><circle cx="380" cy="58" r="6" fill="#0E4A50"/><circle cx="532" cy="58" r="6" fill="#0E4A50"/>
    <circle cx="660" cy="58" r="9" fill="#E7F5EE" stroke="#157A52" stroke-width="1.5"/><path d="M656 58l3 3 5-6" fill="none" stroke="#157A52" stroke-width="2" stroke-linecap="round" stroke-linejoin="round"/>
  </g>
  <g font-family="Geist,sans-serif" font-size="12.5" fill="#14110C" text-anchor="middle">
    <text x="76" y="92">Scope &amp;</text><text x="76" y="108">access</text>
    <text x="228" y="92">Categorise &amp;</text><text x="228" y="108">correct</text>
    <text x="380" y="92">Reconcile</text><text x="380" y="108">every account</text>
    <text x="532" y="92">Review &amp;</text><text x="532" y="108">statements</text>
    <text x="660" y="92" fill="#0F5E3F">CPA-ready</text><text x="660" y="108" fill="#0F5E3F">handoff</text>
  </g>
</svg>
