<svg data-viz="judgment-tree" data-viz-state="FINAL" xmlns="http://www.w3.org/2000/svg" viewBox="0 0 720 240" width="720" height="240" fill="none" aria-hidden="true">
  <g stroke="currentColor" stroke-width="1.25">
    <!-- ledger column grid -->
    <line x1="130" y1="18" x2="130" y2="206" opacity="0.22"></line>
    <line x1="245" y1="18" x2="245" y2="206" opacity="0.22"></line>
    <line x1="360" y1="18" x2="360" y2="206" opacity="0.22"></line>
    <line x1="475" y1="18" x2="475" y2="206" opacity="0.22"></line>
    <line x1="590" y1="18" x2="590" y2="206" opacity="0.22"></line>
    <!-- faint value gridlines -->
    <line x1="40" y1="62" x2="680" y2="62" opacity="0.14"></line>
    <line x1="40" y1="112" x2="680" y2="112" opacity="0.14"></line>
    <!-- automation line: flat, drifting — gaps, duplicate marks, drift step -->
    <line x1="40" y1="158" x2="208" y2="158" opacity="0.55"></line>
    <line x1="224" y1="158" x2="352" y2="162" opacity="0.55"></line>
    <line x1="368" y1="162" x2="500" y2="162" opacity="0.5"></line>
    <line x1="500" y1="162" x2="512" y2="170" opacity="0.5"></line>
    <line x1="512" y1="170" x2="680" y2="170" opacity="0.45"></line>
    <line x1="212" y1="152" x2="220" y2="164" opacity="0.45"></line>
    <line x1="220" y1="152" x2="212" y2="164" opacity="0.45"></line>
    <line x1="356" y1="156" x2="364" y2="168" opacity="0.45"></line>
    <line x1="364" y1="156" x2="356" y2="168" opacity="0.45"></line>
    <line x1="544" y1="164" x2="552" y2="176" opacity="0.4"></line>
    <line x1="552" y1="164" x2="544" y2="176" opacity="0.4"></line>
    <!-- judgment line: reconciled rise with period nodes -->
    <path d="M40 158 C 130 156, 200 142, 268 122 S 420 78, 520 58 S 650 36, 680 32" stroke-width="1.5"></path>
    <!-- reconciliation arcs bridging periods (motif vocabulary) -->
    <path d="M130 150 A 58 36 0 0 1 245 132" opacity="0.5"></path>
    <path d="M360 104 A 58 36 0 0 1 475 78" opacity="0.5"></path>
    <!-- reconciliation checks at the period nodes -->
    <path d="M122 132 l6 8 12 -16"></path>
    <path d="M237 114 l6 8 12 -16"></path>
    <path d="M352 88 l6 8 12 -16"></path>
    <path d="M467 62 l6 8 12 -16"></path>
    <path d="M582 44 l6 8 12 -16"></path>
    <!-- double ledger rule (closing the figure) -->
    <line x1="40" y1="208" x2="680" y2="208"></line>
    <line x1="40" y1="214" x2="680" y2="214"></line>
    <!-- baseline ticks under the rule, period markers -->
    <line x1="130" y1="220" x2="130" y2="226" opacity="0.5"></line>
    <line x1="245" y1="220" x2="245" y2="226" opacity="0.5"></line>
    <line x1="360" y1="220" x2="360" y2="226" opacity="0.5"></line>
    <line x1="475" y1="220" x2="475" y2="226" opacity="0.5"></line>
    <line x1="590" y1="220" x2="590" y2="226" opacity="0.5"></line>
  </g>
  <g fill="currentColor">
    <!-- shared origin -->
    <circle cx="40" cy="158" r="3.5"></circle>
    <!-- judgment period nodes -->
    <circle cx="130" cy="146" r="2.5"></circle>
    <circle cx="245" cy="128" r="2.5"></circle>
    <circle cx="360" cy="102" r="2.5"></circle>
    <circle cx="475" cy="76" r="2.5"></circle>
    <circle cx="590" cy="48" r="2.5"></circle>
    <circle cx="680" cy="32" r="3.5"></circle>
    <!-- automation terminal -->
    <circle cx="680" cy="170" r="3" opacity="0.5"></circle>
  </g>
</svg>
